<?xml version="1.0" standalone="no"?> <!DOCTYPE svg PUBLIC "-//W3C//DTD SVG 1.0//EN" "http://www.w3.org/TR/2001/REC-SVG-20010904/DTD/svg10.dtd" > <svg xmlns="http://www.w3.org/2000/svg" width="100%" height="100%">
<defs >
<font horiz-adv-x="453" ><font-face
    font-family="Stereonic M"
    units-per-em="1000"
    panose-1="2 0 0 0 0 0 0 0 0 0"
    ascent="750"
    descent="-250"
    alphabetic="0" />
<missing-glyph horiz-adv-x="770" d="M238 705T385 705T636 601T740 350T636 99T385 -5T134 99T30 350T134 601ZM254 34T385 34T608 126T701 350T609 573T385 666T162 574T69 350T161 127ZM328 489T385 489T483 448T524 350T483 252T385 211T287 252T246 350T287
448ZM484 309T484 350T455 420T385 449T315 420T286 350T315 280T385 251T455 280ZM385 623V594Q284 594 213 523T141 350H111Q111 463 191 543T385 623ZM385 77V106Q486 106 557 177T629 350H658Q658 237 578 157T385 77ZM385 566V543Q305 543 249 487T192 350H168Q168
439 231 502T385 566ZM385 134V157Q465 157 521 213T578 350H601Q601 261 538 198T385 134ZM368 391T385 391T414 379T426 350T414 321T385 309T356 321T344 350T356 379ZM398 381T385 381T363 372T354 350T363 328T385 319T407 328T416 350T407 372Z" />
<glyph unicode=" " glyph-name="space" horiz-adv-x="225" />
<glyph unicode="!" glyph-name="exclam" horiz-adv-x="210" d="M60 21T60 40T73 72T105 85Q123 85 136 72T150 40T137 8T105 -5Q86 -5 73 8ZM78 190L68 700H143L133 190H78Z" />
<glyph unicode="&quot;" glyph-name="quotedbl" horiz-adv-x="280" d="M60 485V700H105V485H60ZM175 485V700H220V485H175Z" />
<glyph unicode="#" glyph-name="numbersign" horiz-adv-x="726" d="M360 0L414 182H206L151 0H104L159 182H25V227H172L249 482H113V527H263L315 700H362L310 527H518L570 700H617L565 527H701V482H551L475 227H612V182H461L407 0H360ZM296 482L219 227H428L504 482H296Z" />
<glyph unicode="$" glyph-name="dollar" horiz-adv-x="455" d="M208 703V787H253V703Q315 694 357 646T399 535H324Q324 573 296 601T229 630T162 602T134 535Q134 481 180 453L316 369Q363 340 394 293T425 194Q425 118 376 62T253 -3V-87H208V-4Q133 4 82 62T30
198H105Q105 145 141 108T228 70Q278 70 314 106T350 194Q350 223 330 254T277 305L141 389Q103 413 81 452T59 535Q59 600 102 647T208 703Z" />
<glyph unicode="%" glyph-name="percent" horiz-adv-x="693" d="M540 -5Q487 -5 451 37T414 145V200Q414 266 450 308T540 350Q594 350 631 308T668 200V145Q668 79 631 37T540 -5ZM459 200V145Q459 97 482 69T540 40Q576 40 599 68T623 145V200Q623 247 599 276T540
305T482 276T459 200ZM151 350Q98 350 62 392T25 500V555Q25 621 61 663T151 705Q205 705 242 663T279 555V500Q279 434 242 392T151 350ZM70 555V500Q70 452 93 424T151 395Q187 395 210 423T234 500V555Q234 602 210 631T151 660T93 631T70 555ZM103 -27L551
750L590 727L142 -50L103 -27Z" />
<glyph unicode="&amp;" glyph-name="ampersand" horiz-adv-x="588" d="M343 425V350H252Q197 348 159 308T120 212Q120 153 161 112T262 70T362 112T404 213V425H573V350H479V213Q479 123 416 59T262 -5T109 58T45 212Q45 268 72 316T147 394Q84 446 84 526Q84
600 136 652T264 705Q338 705 391 652T444 525H369Q369 568 338 599T264 630T190 600T159 526Q159 485 190 456T265 425H343Z" />
<glyph unicode="&apos;" glyph-name="quotesingle" horiz-adv-x="165" d="M60 485V700H105V485H60Z" />
<glyph unicode="(" glyph-name="parenleft" horiz-adv-x="199" d="M140 750L179 728Q175 722 169 710T148 660T121 580T100 476T90 350T99 225T121 120T147 41T170 -11L179 -28L140 -50Q136 -43 130 -31T107 21T79 106T56 216T45 350Q45 453 69 553T110 692T140 750Z" />
<glyph unicode=")" glyph-name="parenright" horiz-adv-x="199" d="M20 728L59 750Q71 731 88 692T130 553T154 350Q154 283 144 217T120 105T93 23T69 -32L59 -50L20 -28Q24 -22 30 -10T51 40T78 120T99 224T109 350Q109 450 87 544T42 684L20 728Z" />
<glyph unicode="*" glyph-name="asterisk" horiz-adv-x="463" d="M105 382L195 505L50 552L64 595L209 548V700H254V548L399 595L413 551L270 505L359 382L322 355L232 478L142 355L105 382Z" />
<glyph unicode="+" glyph-name="plus" horiz-adv-x="510" d="M60 329V374H233V547H278V374H450V329H278V157H233V329H60Z" />
<glyph unicode="," glyph-name="comma" horiz-adv-x="210" d="M60 40Q60 59 73 72T105 85Q123 85 136 72T150 40Q150 26 142 15L92 -79H68L91 -3Q60 6 60 40Z" />
<glyph unicode="-" glyph-name="hyphen" horiz-adv-x="287" d="M60 327V372H227V327H60Z" />
<glyph unicode="." glyph-name="period" horiz-adv-x="210" d="M60 26T60 45T73 77T105 90Q123 90 136 77T150 45T137 13T105 0Q86 0 73 13Z" />
<glyph unicode="/" glyph-name="slash" horiz-adv-x="328" d="M0 -35L285 750L328 734L42 -50L0 -35Z" />
<glyph unicode="0" glyph-name="zero" horiz-adv-x="590" d="M545 410V290Q545 162 473 79T295 -5T118 78T45 290V410Q45 538 117 621T295 705Q399 705 472 622T545 410ZM470 290V410Q470 507 420 568T295 630T171 569T120 410V290Q120 193 170 132T295 70T419
131T470 290Z" />
<glyph unicode="1" glyph-name="one" horiz-adv-x="361" d="M50 581V658L225 700H251V0H176V611L50 581Z" />
<glyph unicode="2" glyph-name="two" horiz-adv-x="540" d="M51 0V46L332 368Q391 434 391 495Q391 551 353 590T259 630T165 586T125 480H50Q50 573 111 639T258 705T405 644T466 496Q466 407 392 322L176 75H475V0H51Z" />
<glyph unicode="3" glyph-name="three" horiz-adv-x="504" d="M426 657L281 445Q363 433 418 370T474 221Q474 128 408 62T248 -5T89 61T22 221H97Q97 159 141 115T248 70T354 114T399 221T355 327T249 372Q237 372 232 371L169 412L313 625H76V700H426V657Z" />
<glyph unicode="4" glyph-name="four" horiz-adv-x="523" d="M15 130V185L376 700H430V205H488V130H430V0H355V130H15ZM120 205H355V538L120 205Z" />
<glyph unicode="5" glyph-name="five" horiz-adv-x="512" d="M411 700V625H190L167 439Q209 455 247 455Q344 455 413 387T482 224T415 62T254 -5T93 63T25 226H100Q100 161 145 116T254 70Q317 70 362 115T407 224T360 334T247 380Q196 380 157 350L84 372L124 700H411Z" />
<glyph unicode="6" glyph-name="six" horiz-adv-x="555" d="M88 377L301 700H391L239 469Q257 472 277 472Q375 472 445 402T515 233Q515 135 445 65T277 -5T110 65T40 234Q40 305 88 377ZM277 397Q210 397 163 349T115 234Q115 166 162 118T277 70T392 118T440
233Q440 301 393 349T277 397Z" />
<glyph unicode="7" glyph-name="seven" horiz-adv-x="441" d="M35 625V700H411V675L177 0H98L314 625H35Z" />
<glyph unicode="8" glyph-name="eight" horiz-adv-x="516" d="M35 211Q35 267 63 315T139 393Q74 445 74 528Q74 601 128 653T258 705T388 653T442 528Q442 446 376 393Q424 363 452 315T481 211Q481 122 416 59T258 -5T101 58T35 211ZM110 211Q110 153 153 112T258
70T362 111T406 211Q406 268 363 309T258 351H252Q193 349 152 308T110 211ZM149 570T149 528T181 456T258 426T335 456T367 528T335 600T258 630T181 600Z" />
<glyph unicode="9" glyph-name="nine" horiz-adv-x="555" d="M467 323L254 0H164L316 231Q296 228 278 228Q180 228 110 298T40 467Q40 565 110 635T278 705T445 635T515 466Q515 398 467 323ZM278 303Q345 303 392 351T440 466Q440 534 393 582T278 630Q210 630
163 582T115 467Q115 399 162 351T278 303Z" />
<glyph unicode=":" glyph-name="colon" horiz-adv-x="210" d="M60 441T60 460T73 492T105 505Q123 505 136 492T150 460T137 428T105 415Q86 415 73 428ZM60 21T60 40T73 72T105 85Q123 85 136 72T150 40T137 8T105 -5Q86 -5 73 8Z" />
<glyph unicode=";" glyph-name="semicolon" horiz-adv-x="210" d="M60 40Q60 59 73 72T105 85Q123 85 136 72T150 40Q150 26 142 15L92 -79H68L91 -3Q60 6 60 40ZM60 441T60 460T73 492T105 505Q123 505 136 492T150 460T137 428T105 415Q86 415 73 428Z" />
<glyph unicode="&lt;" glyph-name="less" horiz-adv-x="507" d="M447 568V517L112 349L447 180V130L60 325V373L447 568Z" />
<glyph unicode="=" glyph-name="equal" horiz-adv-x="510" d="M60 411V456H450V411H60ZM60 246V291H450V246H60Z" />
<glyph unicode="&gt;" glyph-name="greater" horiz-adv-x="507" d="M60 517V568L447 373V325L60 130V180L395 349L60 517Z" />
<glyph unicode="?" glyph-name="question" horiz-adv-x="474" d="M215 193L207 356L244 368H249Q301 370 337 407T374 497Q374 552 335 591T239 630T144 591T105 497H30Q30 583 91 644T239 705T387 644T449 497Q449 422 400 365T279 296L275 193H215ZM198 59T198
40T211 8T243 -5Q261 -5 274 8T288 40T275 72T243 85Q224 85 211 72Z" />
<glyph unicode="@" glyph-name="at" horiz-adv-x="830" d="M725 350Q725 478 634 569T415 660T196 569T105 350T196 131T415 40Q486 40 552 72L575 33Q499 -5 415 -5Q269 -5 165 99T60 350T164 600T415 705T665 601T770 350Q770 257 725 178V177H563V350Q563 411
520 454T415 498T311 455T267 350T310 246T415 202Q465 202 508 235V181Q463 157 415 157Q336 157 279 213T222 350T279 486T415 543T551 487T608 350V222H697Q725 283 725 350Z" />
<glyph unicode="A" glyph-name="A" horiz-adv-x="480" d="M15 0L212 700H268L465 0H387L355 112H124L93 0H15ZM240 523L145 187H334L240 523Z" />
<glyph unicode="B" glyph-name="B" horiz-adv-x="490" d="M75 700H215Q293 700 346 649T400 525T344 399Q397 372 428 322T460 213Q460 124 395 62T238 0H75V700ZM238 350H150V75H238Q299 75 342 115T385 213Q385 269 342 309T238 350ZM215 625H150V425H215Q260
425 292 454T325 525Q325 567 294 596T215 625Z" />
<glyph unicode="C" glyph-name="C" horiz-adv-x="677" d="M395 70Q508 70 589 148L641 94Q537 -5 395 -5Q248 -5 144 99T40 350Q40 496 144 600T395 705Q537 705 642 605L589 551Q508 630 395 630Q280 630 198 548T115 350T197 152T395 70Z" />
<glyph unicode="D" glyph-name="D" horiz-adv-x="675" d="M75 0V700H280Q426 700 530 597T635 350Q635 205 531 103T280 0H75ZM280 625H150V75H280Q396 75 478 155T560 350Q560 463 478 544T280 625Z" />
<glyph unicode="E" glyph-name="E" horiz-adv-x="415" d="M75 0V700H375V625H150V335H340V260H150V75H375V0H75Z" />
<glyph unicode="F" glyph-name="F" horiz-adv-x="410" d="M75 0V700H375V625H150V335H340V260H150V0H75Z" />
<glyph unicode="G" glyph-name="G" horiz-adv-x="686" d="M378 275V350H641V94Q536 -5 395 -5Q247 -5 144 99T40 350Q40 496 144 600T395 705Q537 705 642 605L589 551Q508 630 395 630Q280 630 198 548T115 350T197 152T395 70Q488 70 566 128V275H378Z" />
<glyph unicode="H" glyph-name="H" horiz-adv-x="530" d="M380 0V260H150V0H75V700H150V335H380V700H455V0H380Z" />
<glyph unicode="I" glyph-name="I" horiz-adv-x="225" d="M75 0V700H150V0H75Z" />
<glyph unicode="J" glyph-name="J" horiz-adv-x="485" d="M165 625V700H415V185Q415 107 359 51T225 -5Q146 -5 91 51T35 185H110Q110 138 144 104T225 70T306 104T340 185V625H165Z" />
<glyph unicode="K" glyph-name="K" horiz-adv-x="433" d="M75 0V700H150V0H75ZM325 700H408L243 361L418 0H335L160 361L325 700Z" />
<glyph unicode="L" glyph-name="L" horiz-adv-x="390" d="M75 0V700H150V75H375V0H75Z" />
<glyph unicode="M" glyph-name="M" horiz-adv-x="640" d="M75 0V700H131L320 298L509 700H565V0H490V483L343 171H297L150 483V0H75Z" />
<glyph unicode="N" glyph-name="N" horiz-adv-x="535" d="M75 0V700H130L385 202V700H460V0H405L150 496V0H75Z" />
<glyph unicode="O" glyph-name="O" horiz-adv-x="790" d="M40 350Q40 497 144 601T395 705Q541 705 645 601T750 350Q750 204 646 100T395 -5Q248 -5 144 99T40 350ZM115 466T115 350T197 152T395 70T592 152T675 350T593 548T395 630T198 548Z" />
<glyph unicode="P" glyph-name="P" horiz-adv-x="510" d="M75 0V700H260Q353 700 419 636T485 480T419 325T260 260H150V0H75ZM260 335Q322 335 366 377T410 480T366 582T260 625H150V335H260Z" />
<glyph unicode="Q" glyph-name="Q" horiz-adv-x="790" d="M40 350Q40 497 144 601T395 705Q541 705 645 601T750 350Q750 204 646 100T395 -5Q248 -5 144 99T40 350ZM115 466T115 350T197 152T395 70T592 152T675 350T593 548T395 630T198 548ZM450 -165V-91H750V-165H450Z"
/>
<glyph unicode="R" glyph-name="R" horiz-adv-x="511" d="M410 0L296 263Q278 260 260 260H150V0H75V700H260Q353 700 419 636T485 480Q485 419 453 367T368 287L491 0H410ZM410 420T410 480T366 582T260 625H150V335H260Q322 335 366 377Z" />
<glyph unicode="S" glyph-name="S" horiz-adv-x="455" d="M310 -5T228 -5T88 54T30 198H105Q105 145 141 108T228 70Q278 70 314 106T350 194Q350 223 330 254T277 305L141 389Q103 413 81 452T59 535Q59 606 108 655T229 705Q299 705 349 655T399 535H324Q324
573 296 601T229 630T162 602T134 535Q134 481 180 453L316 369Q363 340 394 293T425 194Q425 111 368 53Z" />
<glyph unicode="T" glyph-name="T" horiz-adv-x="405" d="M15 625V700H390V625H240V0H165V625H15Z" />
<glyph unicode="U" glyph-name="U" horiz-adv-x="520" d="M260 -5Q181 -5 126 51T70 185V700H145V185Q145 138 179 104T260 70T341 104T375 185V700H450V185Q450 107 394 51T260 -5Z" />
<glyph unicode="V" glyph-name="V" horiz-adv-x="480" d="M212 0L15 700H93L240 177L387 700H465L268 0H212Z" />
<glyph unicode="W" glyph-name="W" horiz-adv-x="751" d="M15 700H93L225 196L348 700H402L525 196L658 700H736L551 0H496L375 493L255 0H199L15 700Z" />
<glyph unicode="X" glyph-name="X" horiz-adv-x="478" d="M370 700H453L288 361L463 0H380L239 290L98 0H15L190 361L26 700H109L239 432L370 700Z" />
<glyph unicode="Y" glyph-name="Y" horiz-adv-x="485" d="M15 700H98L242 398L387 700H470L280 302V0H205V302L15 700Z" />
<glyph unicode="Z" glyph-name="Z" horiz-adv-x="422" d="M42 625V700H387V645L126 75H385V0H35V55L295 625H42Z" />
<glyph unicode="[" glyph-name="bracketleft" horiz-adv-x="235" d="M120 705V-5H220V-50H75V750H220V705H120Z" />
<glyph unicode="\" glyph-name="backslash" horiz-adv-x="328" d="M43 750L328 -35L286 -50L0 734L43 750Z" />
<glyph unicode="]" glyph-name="bracketright" horiz-adv-x="235" d="M115 -5V705H15V750H160V-50H15V-5H115Z" />
<glyph unicode="^" glyph-name="asciicircum" horiz-adv-x="507" d="M110 369H60L229 700H277L447 368H397L253 649L110 369Z" />
<glyph unicode="_" glyph-name="underscore" horiz-adv-x="225" d="M0 -95V-50H225V-95H0Z" />
<glyph unicode="`" glyph-name="grave" horiz-adv-x="256" d="M68 618L206 550L195 525L50 576L68 618Z" />
<glyph unicode="a" glyph-name="a" horiz-adv-x="480" d="M15 0L212 700H268L465 0H387L355 112H124L93 0H15ZM240 523L145 187H334L240 523Z" />
<glyph unicode="b" glyph-name="b" horiz-adv-x="490" d="M75 700H215Q293 700 346 649T400 525T344 399Q397 372 428 322T460 213Q460 124 395 62T238 0H75V700ZM238 350H150V75H238Q299 75 342 115T385 213Q385 269 342 309T238 350ZM215 625H150V425H215Q260
425 292 454T325 525Q325 567 294 596T215 625Z" />
<glyph unicode="c" glyph-name="c" horiz-adv-x="677" d="M395 70Q508 70 589 148L641 94Q537 -5 395 -5Q248 -5 144 99T40 350Q40 496 144 600T395 705Q537 705 642 605L589 551Q508 630 395 630Q280 630 198 548T115 350T197 152T395 70Z" />
<glyph unicode="d" glyph-name="d" horiz-adv-x="675" d="M75 0V700H280Q426 700 530 597T635 350Q635 205 531 103T280 0H75ZM280 625H150V75H280Q396 75 478 155T560 350Q560 463 478 544T280 625Z" />
<glyph unicode="e" glyph-name="e" horiz-adv-x="415" d="M75 0V700H375V625H150V335H340V260H150V75H375V0H75Z" />
<glyph unicode="f" glyph-name="f" horiz-adv-x="410" d="M75 0V700H375V625H150V335H340V260H150V0H75Z" />
<glyph unicode="g" glyph-name="g" horiz-adv-x="686" d="M376 275V350H639V94Q534 -5 393 -5Q245 -5 142 99T38 350Q38 496 142 600T393 705Q535 705 640 605L587 551Q506 630 393 630Q278 630 196 548T113 350T195 152T393 70Q486 70 564 128V275H376Z" />
<glyph unicode="h" glyph-name="h" horiz-adv-x="530" d="M380 0V260H150V0H75V700H150V335H380V700H455V0H380Z" />
<glyph unicode="i" glyph-name="i" horiz-adv-x="225" d="M75 0V700H150V0H75Z" />
<glyph unicode="j" glyph-name="j" horiz-adv-x="485" d="M165 625V700H415V185Q415 107 359 51T225 -5Q146 -5 91 51T35 185H110Q110 138 144 104T225 70T306 104T340 185V625H165Z" />
<glyph unicode="k" glyph-name="k" horiz-adv-x="433" d="M75 0V700H150V0H75ZM325 700H408L243 361L418 0H335L160 361L325 700Z" />
<glyph unicode="l" glyph-name="l" horiz-adv-x="390" d="M75 0V700H150V75H375V0H75Z" />
<glyph unicode="m" glyph-name="m" horiz-adv-x="640" d="M75 0V700H131L320 298L509 700H565V0H490V483L343 171H297L150 483V0H75Z" />
<glyph unicode="n" glyph-name="n" horiz-adv-x="535" d="M75 0V700H130L385 202V700H460V0H405L150 496V0H75Z" />
<glyph unicode="o" glyph-name="o" horiz-adv-x="790" d="M40 350Q40 497 144 601T395 705Q541 705 645 601T750 350Q750 204 646 100T395 -5Q248 -5 144 99T40 350ZM115 466T115 350T197 152T395 70T592 152T675 350T593 548T395 630T198 548Z" />
<glyph unicode="p" glyph-name="p" horiz-adv-x="510" d="M75 0V700H260Q353 700 419 636T485 480T419 325T260 260H150V0H75ZM260 335Q322 335 366 377T410 480T366 582T260 625H150V335H260Z" />
<glyph unicode="q" glyph-name="q" horiz-adv-x="790" d="M40 350Q40 497 144 601T395 705Q541 705 645 601T750 350Q750 204 646 100T395 -5Q248 -5 144 99T40 350ZM115 466T115 350T197 152T395 70T592 152T675 350T593 548T395 630T198 548ZM450 -165V-91H750V-165H450Z"
/>
<glyph unicode="r" glyph-name="r" horiz-adv-x="511" d="M410 0L296 263Q278 260 260 260H150V0H75V700H260Q353 700 419 636T485 480Q485 419 453 367T368 287L491 0H410ZM410 420T410 480T366 582T260 625H150V335H260Q322 335 366 377Z" />
<glyph unicode="s" glyph-name="s" horiz-adv-x="455" d="M310 -5T228 -5T88 54T30 198H105Q105 145 141 108T228 70Q278 70 314 106T350 194Q350 223 330 254T277 305L141 389Q103 413 81 452T59 535Q59 606 108 655T229 705Q299 705 349 655T399 535H324Q324
573 296 601T229 630T162 602T134 535Q134 481 180 453L316 369Q363 340 394 293T425 194Q425 111 368 53Z" />
<glyph unicode="t" glyph-name="t" horiz-adv-x="405" d="M15 625V700H390V625H240V0H165V625H15Z" />
<glyph unicode="u" glyph-name="u" horiz-adv-x="520" d="M260 -5Q181 -5 126 51T70 185V700H145V185Q145 138 179 104T260 70T341 104T375 185V700H450V185Q450 107 394 51T260 -5Z" />
<glyph unicode="v" glyph-name="v" horiz-adv-x="480" d="M212 0L15 700H93L240 177L387 700H465L268 0H212Z" />
<glyph unicode="w" glyph-name="w" horiz-adv-x="751" d="M15 700H93L225 196L348 700H402L525 196L658 700H736L551 0H496L375 493L255 0H199L15 700Z" />
<glyph unicode="x" glyph-name="x" horiz-adv-x="478" d="M370 700H453L288 361L463 0H380L239 290L98 0H15L190 361L26 700H109L239 432L370 700Z" />
<glyph unicode="y" glyph-name="y" horiz-adv-x="485" d="M15 700H98L242 398L387 700H470L280 302V0H205V302L15 700Z" />
<glyph unicode="z" glyph-name="z" horiz-adv-x="422" d="M42 625V700H387V645L126 75H385V0H35V55L295 625H42Z" />
<glyph unicode="{" glyph-name="braceleft" horiz-adv-x="260" d="M40 327V372Q74 372 97 394T120 448V629Q120 679 156 714T245 750V705Q212 705 189 683T165 629V448Q165 384 112 348Q165 312 165 251V70Q165 39 188 17T245 -5V-50Q193 -50 157 -15T120 71V251Q120
280 98 302T43 327H40Z" />
<glyph unicode="|" glyph-name="bar" horiz-adv-x="195" d="M75 -50V750H120V-50H75Z" />
<glyph unicode="}" glyph-name="braceright" horiz-adv-x="260" d="M220 372V327H216Q183 324 162 302T140 251V71Q140 21 104 -14T15 -50V-5Q48 -5 71 17T95 70V251Q95 313 148 348Q95 383 95 448V629Q95 660 72 682T15 705V750Q67 750 103 715T140 629V448Q140
416 163 394T220 372Z" />
<glyph unicode="~" glyph-name="asciitilde" horiz-adv-x="514" d="M105 300H60Q60 349 95 383T180 418Q240 418 274 368Q295 334 335 334Q365 334 387 355T409 407H454Q454 358 419 324T335 289Q275 289 241 338Q218 373 180 373Q148 373 127 352T105 300Z" />
</font>
</defs>
</svg>
