<?xml version="1.0" encoding="UTF-8" standalone="no"?>
<svg
   xmlns:dc="http://purl.org/dc/elements/1.1/"
   xmlns:cc="http://creativecommons.org/ns#"
   xmlns:rdf="http://www.w3.org/1999/02/22-rdf-syntax-ns#"
   xmlns:svg="http://www.w3.org/2000/svg"
   xmlns="http://www.w3.org/2000/svg"
   viewBox="0 0 600 600"
   height="600"
   width="600"
   xml:space="preserve"
   id="svg2"
   version="1.1"><metadata
     id="metadata8"><rdf:RDF><cc:Work
         rdf:about=""><dc:format>image/svg+xml</dc:format><dc:type
           rdf:resource="http://purl.org/dc/dcmitype/StillImage" /></cc:Work></rdf:RDF></metadata><defs
     id="defs6" /><g
     transform="matrix(1.3333333,0,0,-1.3333333,0,600)"
     id="g10"><g
       transform="scale(0.1)"
       id="g12"><path
         id="path14"
         style="fill:#ac1515;fill-opacity:1;fill-rule:nonzero;stroke:none"
         d="m 4500,2648.27 -25.96,12.48 c -7.57,-5.28 -17.17,-8.09 -26.99,-8.62 -0.95,-0.05 -1.9,-0.07 -2.85,-0.07 -9.18,0 -18.65,2.11 -26.97,6.4 -8.99,4.6 -17.52,12.03 -19.01,21.27 -0.85,5.69 1.14,10.9 4.46,15.35 l -20.01,9.62 2.23,4.65 21.34,-10.27 c 1.23,1.19 2.5,2.34 3.86,3.37 7.39,5.68 17.11,8.97 27.18,9.48 1.07,0.05 2.14,0.08 3.22,0.08 9.09,0 18.46,-1.88 26.84,-6.01 4.65,-2.32 9.04,-5.29 12.51,-9.01 2.49,-2.57 4.41,-5.64 5.44,-8.83 l 14.71,30.58 v -14.35 l -15.4,-32.01 0.01,0.22 -0.68,-1.44 c -1.42,-2.54 -3.32,-4.79 -5.46,-6.82 l 21.53,-10.37 v -5.7 m -93,44.73 c -0.98,-0.78 -1.9,-1.59 -2.67,-2.52 -2.61,-2.9 -3.88,-6.76 -3.2,-10.6 0.66,-3.87 3.25,-7.4 6.7,-10 3.48,-2.57 7.64,-4.3 11.88,-5.41 6.48,-1.64 13.03,-2.2 19.5,-2.2 2.06,0 4.13,0.06 6.17,0.16 6.46,0.35 12.84,1.26 18.87,3.03 L 4407,2693 m 36.97,8.55 c -1.67,0 -3.33,-0.04 -4.98,-0.12 -8.39,-0.5 -16.87,-1.47 -24.69,-4.37 l -2.03,-0.89 58.74,-28.25 c 6.81,3.11 12.97,8.57 12.27,16.19 -2.22,7.84 -10.63,12.75 -18.82,14.9 -6.72,1.83 -13.65,2.54 -20.49,2.54" /><path
         id="path16"
         style="fill:#ac1515;fill-opacity:1;fill-rule:nonzero;stroke:none"
         d="m 3676.67,1473.43 -4.77,3.36 98.46,139.83 -0.05,-0.2 0.86,1.23 c 1.7,2.13 3.81,3.92 6.11,5.46 l -24.56,17.31 2.77,3.95 26.44,-18.61 c 6.02,2.86 12.9,4.18 19.93,4.18 2.13,0 4.27,-0.12 6.41,-0.36 9.39,-1.1 18.87,-4.66 26.65,-10.48 7.61,-5.64 14.36,-13.85 14.31,-22.63 -0.09,-5.4 -2.74,-9.91 -6.5,-13.52 l 17.06,-12.02 -2.78,-3.95 -18.19,12.81 c -1.33,-0.91 -2.68,-1.78 -4.08,-2.53 -6.14,-3.27 -13.4,-4.92 -20.84,-4.92 -1.93,0 -3.88,0.11 -5.81,0.34 -9.41,1.1 -18.96,4.4 -26.95,10.13 -3.94,2.86 -7.54,6.29 -10.18,10.27 -1.92,2.77 -3.22,5.91 -3.68,9.02 l -90.61,-128.67 m 106.96,145.2 c -6.78,-1.81 -13.33,-5.92 -13.86,-13.08 0.83,-7.61 7.88,-13.46 15.13,-16.71 7.4,-3.4 15.32,-5.25 23.22,-6.18 4.06,-0.43 8.17,-0.75 12.25,-0.75 3.8,0 7.59,0.27 11.3,0.99 l 2.01,0.52 -50.05,35.21 m 14.82,1.72 c -2.75,0 -5.48,-0.15 -8.18,-0.48 l 48.78,-34.33 c 1.02,0.56 2.01,1.17 2.87,1.92 2.86,2.27 4.63,5.65 4.59,9.32 -0.01,3.69 -1.86,7.36 -4.66,10.3 -2.83,2.91 -6.4,5.17 -10.16,6.85 -7.58,3.31 -15.58,4.91 -23.47,5.85 -3.26,0.36 -6.53,0.57 -9.77,0.57" /><path
         id="path18"
         style="fill:#ac1515;fill-opacity:1;fill-rule:nonzero;stroke:none"
         d="m 2703.02,1358.86 c -0.62,0 -1.25,0.01 -1.88,0.03 -12.66,0.32 -26.31,4.08 -33.03,13.72 -6.56,9.7 -4.09,21.96 1.08,32.14 5.25,10.43 14.45,19.44 25.56,25.49 1.6,0.87 3.33,1.58 5.01,2.35 h -67.55 v 6.44 h 88.84 c 3.4,0.51 6.85,0.84 10.33,0.84 0.19,0 0.38,0 0.57,-0.01 3.2,-0.03 6.39,-0.3 9.51,-0.83 h 20.45 v 200.62 h 7.83 v -200.62 h 32.82 v -6.44 h -32.82 v -21.33 l -0.11,0.23 v -1.98 c -0.36,-5.7 -2.25,-11.29 -5.06,-16.47 -5.65,-10.41 -15.21,-19.02 -26.27,-25.08 -10.56,-5.73 -22.93,-9.1 -35.28,-9.1 m 38.69,72.46 c -3.11,0 -6.23,-0.33 -9.22,-0.91 -10.68,-1.97 -20.76,-6.06 -30.09,-11.11 -9.25,-5.13 -18.29,-10.85 -25.55,-18.38 -3.5,-3.78 -6.47,-8.13 -7.69,-12.85 -1.37,-4.7 -0.7,-9.75 2.16,-13.72 2.85,-4.02 7.71,-6.6 13.01,-7.64 2.26,-0.44 4.59,-0.64 6.92,-0.64 3.16,0 6.34,0.36 9.44,0.97 10.82,2.2 20.78,6.6 30.13,11.65 9.3,5.12 17.97,11.23 24.83,18.78 6.64,7.35 11.47,17.59 6.21,26.32 -4.83,5.47 -12.41,7.53 -20.15,7.53 m 16.57,1.27 c 1.35,-0.95 2.55,-1.99 3.63,-3.13 v 3.13 h -3.63" /><path
         id="path20"
         style="fill:#ac1515;fill-opacity:1;fill-rule:nonzero;stroke:none"
         d="m 898.727,116.172 c -12.508,0 -24.356,7.476 -29.332,19.789 -6.536,16.187 1.289,34.621 17.492,41.16 3.879,1.559 7.883,2.301 11.824,2.301 12.516,0 24.367,-7.473 29.348,-19.793 6.519,-16.188 -1.301,-34.609 -17.5,-41.149 -3.883,-1.57 -7.887,-2.308 -11.832,-2.308 m 182.873,36.289 c -69.93,0 -108.772,55.398 -121.178,76.789 -59.895,103.332 -32.961,217.711 7.984,285.18 25.063,41.289 45.174,73.281 125.034,135.922 -118.206,-148.762 -135.667,-260.141 -82.5,-385.731 14.51,-34.25 54.66,-63.66 98.68,-63.66 12.78,0 25.88,2.469 38.78,8.027 12.51,5.403 57.66,17.883 68.82,89.004 -5.34,-8.273 -13.1,-15.07 -22.91,-19.043 -6.05,-2.437 -12.3,-3.59 -18.45,-3.59 -19.53,0 -38.03,11.672 -45.79,30.891 -10.2,25.262 2.02,54.031 27.29,64.219 6.06,2.453 12.31,3.613 18.46,3.613 19.53,0 38.02,-11.684 45.77,-30.891 1.56,-3.859 2.42,-7.812 2.98,-11.761 l 1.17,1.468 c 13.64,-49.628 -1.69,-88.859 -15.89,-109.898 -17.96,-26.578 -43.94,-49.43 -74.4,-60.441 -19.66,-7.11 -37.6,-10.098 -53.85,-10.098 M 842.961,254.332 c -12.52,0 -24.371,7.469 -29.34,19.797 -6.531,16.191 1.281,34.609 17.484,41.152 3.879,1.571 7.887,2.309 11.829,2.309 12.511,0 24.359,-7.469 29.332,-19.781 6.543,-16.207 -1.289,-34.637 -17.481,-41.18 -3.879,-1.559 -7.883,-2.297 -11.824,-2.297" /><path
         id="path22"
         style="fill:#ac1515;fill-opacity:1;fill-rule:nonzero;stroke:none"
         d="m 4144.28,2000.94 c -39.52,0 -72.98,16.25 -85.36,42.66 16.86,-13.85 43.11,-21.76 73.1,-21.76 13.31,0 27.36,1.56 41.65,4.85 46.51,10.7 82.65,36.75 95.81,65.39 0.53,-37.35 -37.32,-74.85 -90.79,-87.16 -11.73,-2.7 -23.3,-3.98 -34.41,-3.98 m 19.8,44.09 c -10.57,0 -20.12,7.27 -22.59,18.02 -2.88,12.5 4.91,24.95 17.41,27.83 1.75,0.4 3.5,0.59 5.22,0.59 10.57,0 20.13,-7.26 22.6,-18 2.89,-12.51 -4.92,-24.97 -17.41,-27.85 -1.76,-0.4 -3.51,-0.59 -5.23,-0.59" /><path
         id="path24"
         style="fill:#ac1515;fill-opacity:1;fill-rule:nonzero;stroke:none"
         d="m 3219.71,2799.5 c -7.53,0 -15.25,1.55 -22.2,4.76 -8.26,3.8 -16.25,10.16 -17.95,18.43 -1.59,8.29 3.53,15.68 9.83,20.95 6.44,5.4 15.05,8.76 24.13,9.6 1.8,0.17 3.62,0.25 5.46,0.25 7.39,0 14.95,-1.39 21.87,-4.44 4.29,-1.9 8.34,-4.4 11.62,-7.62 2.35,-2.22 4.19,-4.91 5.23,-7.75 l 59.62,138.97 5.18,-2.22 -64.79,-151 -0.01,0.19 -0.54,-1.34 c -1.88,-3.65 -4.7,-6.81 -8.02,-9.42 -6.7,-5.29 -15.45,-8.27 -24.49,-9.14 -1.63,-0.15 -3.28,-0.22 -4.94,-0.22" /><path
         id="path26"
         style="fill:#ac1515;fill-opacity:1;fill-rule:nonzero;stroke:none"
         d="m 4172.96,2189.37 -2.3,3.04 88.57,66.95 -0.05,-0.12 0.77,0.61 c 2.31,1.51 5.02,2.42 7.85,2.85 1.25,0.19 2.52,0.28 3.8,0.28 4.56,0 9.26,-1.15 13.63,-3.12 5.59,-2.53 10.75,-6.61 14.42,-11.75 3.57,-4.99 6.13,-11.41 4.37,-16.82 -1.84,-5.4 -7.32,-8.04 -12.79,-9.02 -1.5,-0.27 -3.04,-0.4 -4.6,-0.4 -4.26,0 -8.67,0.99 -12.77,2.86 -5.61,2.54 -10.84,6.47 -14.64,11.6 -1.89,2.55 -3.43,5.37 -4.27,8.36 -0.64,2.1 -0.82,4.28 -0.48,6.3 l -81.51,-61.62" /><path
         id="path28"
         style="fill:#ac1515;fill-opacity:1;fill-rule:nonzero;stroke:none"
         d="m 4463.62,3514.09 -60.02,220.36 0.18,-0.19 -0.55,1.91 c -1.13,5.58 -0.79,11.47 0.57,17.21 2.71,11.53 9.68,22.35 18.75,31.09 9.13,8.73 20.87,15.46 33.47,18.53 4.74,1.17 9.75,1.88 14.65,1.88 7.8,0 15.29,-1.81 20.83,-6.44 8.89,-7.64 9.71,-20.12 7.4,-31.28 -2.33,-11.46 -8.83,-22.55 -17.96,-31.32 -9.13,-8.75 -20.67,-15.74 -33.36,-19.07 -4.78,-1.23 -9.71,-1.98 -14.58,-1.98 -1.56,0 -3.12,0.08 -4.67,0.25 -4.48,0.38 -8.82,1.72 -12.4,3.9 l 55.22,-202.8 -7.53,-2.05 m 12.55,285.85 c -0.62,0 -1.24,-0.02 -1.86,-0.06 -5.42,-0.4 -10.79,-2.2 -15.7,-4.63 -9.88,-4.95 -18.34,-11.83 -26.01,-19.14 -7.62,-7.39 -14.39,-15.58 -19.04,-24.67 -4.48,-8.83 -6.43,-19.97 0.93,-27 3.56,-2.35 7.72,-3.32 12.05,-3.32 6.07,0 12.47,1.91 18.04,4.66 9.78,4.68 18.44,11.3 26.1,18.6 7.57,7.38 14.8,15.26 19.82,24.44 2.4,4.58 4.13,9.54 4.05,14.43 0.08,4.89 -1.89,9.58 -5.67,12.66 -3.38,2.77 -7.97,4.03 -12.71,4.03" /><path
         id="path30"
         style="fill:#ac1515;fill-opacity:1;fill-rule:nonzero;stroke:none"
         d="m 3040.56,3006.95 c -1.72,0 -3.42,0.23 -5.05,0.74 -7.69,2.49 -11.54,10.21 -13.05,17.91 -1.55,7.9 -0.37,16.67 3.1,24.67 3.48,7.98 8.96,15.51 16.14,20.99 3.57,2.72 7.55,4.97 11.76,6.23 2.06,0.66 4.2,1 6.28,1 0.84,0 1.67,-0.05 2.49,-0.17 l -0.29,0.15 -110.17,141.26 4.3,3.35 3.43,-4.38 c 4.32,-1.25 8.51,-1.74 12.62,-1.74 7.25,0 14.27,1.51 21.3,3.02 7.02,1.51 14.07,3.03 21.39,3.03 13.05,0 26.98,-4.81 43.24,-23 6.51,-7.29 58.8,-81.05 66.98,-94.84 -31.11,28.96 -50.91,36.06 -65.21,36.06 -6.87,0 -12.48,-1.64 -17.46,-3.28 -4.99,-1.64 -9.35,-3.27 -13.74,-3.27 -1.34,0 -2.69,0.15 -4.06,0.51 l 48.03,-61.64 c 0.92,-0.85 1.77,-1.76 2.45,-2.82 2.2,-3.24 3.55,-7.08 4.21,-11.08 1.34,-8.06 -0.22,-16.78 -3.65,-24.75 -3.48,-7.97 -9.16,-15.37 -16.34,-20.67 -5.52,-4.09 -12.29,-7.28 -18.7,-7.28 m 15.34,157.07 c 6.93,0 14.12,-1.34 21.86,-5.38 -15.13,11.47 -26.86,14.97 -36.52,14.97 -7.6,0 -13.92,-2.17 -19.61,-4.35 -5.69,-2.17 -10.74,-4.34 -15.82,-4.34 -1.66,0 -3.33,0.23 -5.02,0.77 l 4.63,-5.93 c 3.46,-0.76 6.83,-1.06 10.13,-1.06 6.92,0 13.56,1.33 20.19,2.66 6.64,1.33 13.27,2.66 20.16,2.66 m -78.47,31.65 5.02,-6.45 c 3.6,-0.85 7.12,-1.19 10.58,-1.19 7.24,0 14.24,1.5 21.25,2.99 7.02,1.5 14.05,3 21.35,3 5.32,0 10.77,-0.8 16.47,-2.96 -13.58,8.89 -24.29,11.67 -33.27,11.67 -7.51,0 -13.81,-1.94 -19.58,-3.88 -5.78,-1.94 -11.02,-3.88 -16.41,-3.88 -1.78,0 -3.57,0.21 -5.41,0.7" /><path
         id="path32"
         style="fill:#ac1515;fill-opacity:1;fill-rule:nonzero;stroke:none"
         d="m 2800.3,2611.4 c 37.11,124.68 -19.74,121.25 -25.76,150.01 l -49.18,-102.21 c -0.52,-1.74 -1.15,-3.43 -2.09,-5 -2.8,-4.96 -6.92,-9.19 -11.7,-12.63 -9.61,-6.93 -21.95,-10.53 -34.53,-11.22 -1.19,-0.05 -2.39,-0.08 -3.59,-0.08 -11.52,0 -23.4,2.64 -33.84,8.01 -11.27,5.76 -21.95,15.09 -23.82,26.66 -1.73,11.61 5.84,21.58 14.88,28.52 9.27,7.12 21.45,11.24 34.09,11.89 1.33,0.07 2.67,0.1 4.01,0.1 11.41,0 23.17,-2.36 33.69,-7.55 5.84,-2.9 11.33,-6.62 15.69,-11.28 3.07,-3.17 5.41,-6.93 6.73,-10.86 v 0.46 l 112.67,234.38 7.13,-3.44 -3.49,-7.29 c 8.87,-49.21 71.39,-60.02 39.25,-140.2 -5.28,-13.18 -67.48,-128.73 -80.14,-148.27 m -1.41,200.6 -4.74,-9.86 c 9.14,-36.35 46.1,-50.89 45.2,-94.8 14.6,76.72 -36.25,76.66 -40.46,104.66 m 23.92,49.71 -5.14,-10.69 c 8.14,-35.02 43.48,-50.6 47.3,-89.39 8.24,68.94 -36.37,71.2 -42.16,100.08" /><path
         id="path34"
         style="fill:#ac1515;fill-opacity:1;fill-rule:nonzero;stroke:none"
         d="m 3997.02,3292.29 c 25.76,86.54 -13.7,84.15 -17.88,104.11 l -34.13,-70.93 c -0.36,-1.21 -0.79,-2.38 -1.45,-3.47 -1.94,-3.44 -4.8,-6.38 -8.12,-8.76 -6.67,-4.82 -15.23,-7.32 -23.97,-7.79 -0.82,-0.04 -1.65,-0.06 -2.48,-0.06 -7.99,0 -16.24,1.83 -23.49,5.56 -7.82,4 -15.24,10.48 -16.53,18.5 -1.2,8.06 4.05,14.98 10.33,19.79 6.43,4.95 14.88,7.81 23.65,8.26 0.92,0.04 1.85,0.07 2.78,0.07 7.92,0 16.09,-1.64 23.39,-5.24 4.05,-2.01 7.86,-4.6 10.89,-7.83 2.13,-2.2 3.75,-4.81 4.67,-7.54 v 0.32 l 78.19,162.66 4.95,-2.39 -2.42,-5.05 c 6.15,-34.15 49.54,-41.66 27.24,-97.3 -3.67,-9.15 -46.83,-89.35 -55.62,-102.91 m -0.99,139.22 -3.28,-6.84 c 6.34,-25.23 32,-35.31 31.38,-65.79 10.12,53.24 -25.17,53.2 -28.1,72.63 m 16.61,34.5 -3.57,-7.42 c 5.66,-24.3 30.19,-35.11 32.83,-62.03 5.73,47.84 -25.24,49.41 -29.26,69.45" /><path
         id="path36"
         style="fill:#ac1515;fill-opacity:1;fill-rule:nonzero;stroke:none"
         d="m 2018.05,1103.13 c -10.83,0 -19.25,8.08 -24.74,17.21 -5.82,9.58 -8.49,21.62 -7.77,33.74 0.71,12.09 4.29,24.55 11.06,35.15 3.38,5.26 7.49,10.11 12.39,13.77 3.4,2.65 7.32,4.51 11.28,5.31 l -171.01,106.73 3.98,6.37 6.21,-3.88 c 53.98,3.48 55.92,37.09 84.63,37.09 15.94,0 40.13,-10.36 86.03,-41.96 -22.9,12.65 -40.25,17.3 -54.05,17.3 -19.19,0 -31.53,-8.99 -42.4,-17.98 -10.87,-8.98 -20.27,-17.97 -33.6,-17.97 -1.04,0 -2.1,0.06 -3.19,0.17 l 142.17,-88.74 -0.26,0.03 1.65,-0.98 c 4.45,-3.21 8.03,-7.58 10.82,-12.48 5.59,-9.9 7.73,-22.04 7.05,-34.12 -0.73,-12.07 -4.6,-24.47 -11.48,-34.83 -6.68,-10.14 -16.68,-19.34 -27.93,-19.91 -0.28,-0.01 -0.56,-0.02 -0.84,-0.02" /><path
         id="path38"
         style="fill:#ac1515;fill-opacity:1;fill-rule:nonzero;stroke:none"
         d="m 1479.33,547.031 c -0.78,0 -1.56,0.008 -2.34,0.039 -10.38,0.43 -21.08,3.539 -30.11,9.239 -8.81,5.57 -16.9,13.972 -17.58,23.613 -0.57,9.637 6.35,17.258 14.29,22.297 7.57,4.801 17.03,7.301 26.7,7.301 0.7,0 1.41,-0.008 2.11,-0.04 10.41,-0.429 21.17,-3.25 30.37,-8.859 4.59,-2.832 8.82,-6.269 12.06,-10.402 2.18,-2.719 3.78,-5.84 4.61,-9 l 109.31,183.621 6.07,-3.27 -5.62,-9.461 c 3.4,-37.679 40.79,-49.539 33.6,-84.75 L 1602.95,566.82 c 24.84,61.762 -23.2,77.762 -17.25,112.301 l -67.73,-113.66 v 0.07 l -1.3,-2.281 c -2.67,-3.852 -6.36,-7.02 -10.53,-9.5 -7.76,-4.602 -17.22,-6.719 -26.81,-6.719 m 131.6,174.438 -8.73,-14.68 c 3.1,-27.75 29.11,-40.949 32.85,-68.617 11.86,54.609 -25.63,59.187 -24.12,83.297" /><path
         id="path40"
         style="fill:#ac1515;fill-opacity:1;fill-rule:nonzero;stroke:none"
         d="m 3835.8,1778.95 c -5.81,0 -11.69,0.98 -17.18,3.02 -7.97,2.97 -15.84,8.33 -18,15.92 -2.07,7.61 2.19,14.86 7.7,20.22 5.61,5.47 13.43,9.2 21.8,10.63 2.98,0.5 6.06,0.76 9.15,0.76 5.59,0 11.25,-0.86 16.6,-2.75 4.14,-1.49 8.09,-3.53 11.38,-6.29 2.19,-1.81 3.99,-4.02 5.18,-6.42 l 56.56,165.05 5.41,-1.6 -2.91,-8.51 c 9.05,-29.53 40.9,-32.75 41.07,-62.08 l -30.98,-90.38 c 9.5,53.53 -31.57,58.25 -32.62,86.85 l -35.05,-102.17 -0.01,0.05 -0.67,-2.03 c -1.49,-3.54 -3.9,-6.68 -6.81,-9.36 -5.88,-5.39 -13.82,-8.78 -22.17,-10.21 -2.76,-0.46 -5.59,-0.7 -8.45,-0.7 m 86.23,162.5 -4.51,-13.21 c 7.13,-21.64 30.12,-27.84 37.74,-49.31 0.34,45.62 -30.39,43 -33.23,62.52" /><path
         id="path42"
         style="fill:#ac1515;fill-opacity:1;fill-rule:nonzero;stroke:none"
         d="m 1931.7,2963.67 -16.62,32.79 0.07,0.04 -57.24,113.03 c -1.19,1.4 -2.2,2.98 -2.83,4.74 -1.48,3.78 -1.98,7.98 -1.75,12.18 0.48,8.49 4.03,16.98 9.32,24.28 5.36,7.3 12.78,13.52 21.28,17.26 4.89,2.16 10.38,3.66 15.56,3.66 3.59,0 7.02,-0.72 10.01,-2.44 7.24,-4.26 9.37,-12.97 9.15,-21.13 -0.21,-8.36 -3.41,-16.99 -8.74,-24.32 -5.35,-7.31 -12.61,-13.69 -21.13,-17.62 -4.26,-1.94 -8.79,-3.32 -13.35,-3.65 -0.63,-0.05 -1.26,-0.08 -1.89,-0.08 -2.35,0 -4.66,0.39 -6.77,1.11 l 0.76,-0.6 52.67,-103.85 147.96,75 -58.56,115.64 c -1.19,1.41 -2.18,2.98 -2.83,4.75 -1.5,3.78 -2,7.98 -1.75,12.19 0.47,8.47 4.03,16.96 9.32,24.27 5.36,7.3 12.78,13.51 21.27,17.26 4.9,2.16 10.39,3.66 15.56,3.66 3.59,0 7.03,-0.72 10.02,-2.44 7.24,-4.27 9.38,-12.96 9.14,-21.12 -0.21,-8.36 -3.4,-17.01 -8.73,-24.33 -5.34,-7.3 -12.61,-13.69 -21.13,-17.62 -4.26,-1.94 -8.8,-3.32 -13.35,-3.64 -0.63,-0.06 -1.27,-0.09 -1.9,-0.09 -2.35,0 -4.66,0.38 -6.75,1.11 l 0.75,-0.6 54,-106.47 0.01,0.01 16.62,-32.8 -158.15,-80.18" /><path
         id="path44"
         style="fill:#ac1515;fill-opacity:1;fill-rule:nonzero;stroke:none"
         d="m 1538.4,890.801 c -3.71,0 -7.42,0.347 -11.06,1.09 -9.72,1.968 -19.78,6.711 -23.65,15.078 -3.77,8.383 -0.18,17.519 5.18,24.691 5.48,7.328 13.81,13.059 23.2,16.231 6.29,2.121 13.09,3.32 19.93,3.32 3.39,0 6.78,-0.301 10.12,-0.922 5.03,-0.949 9.97,-2.578 14.25,-5.168 2.84,-1.66 5.29,-3.859 7.1,-6.383 l -0.31,1.012 24.32,165.46 2.32,-0.24 196.39,20.1 -5.63,-38.22 -0.35,-0.04 -3.33,-22.66 1.19,0.11 -1.23,-8.34 -1.21,-0.13 -16.69,-113.099 c 0.2,-2.019 0.09,-4.07 -0.45,-6.05 -1.07,-4.34 -3.27,-8.422 -6.15,-12.02 -5.79,-7.301 -14.32,-12.641 -23.69,-15.851 -5.97,-1.981 -12.41,-3.059 -18.88,-3.059 -3.71,0 -7.43,0.348 -11.06,1.098 -9.74,1.953 -19.79,6.711 -23.67,15.082 -3.76,8.379 -0.19,17.507 5.18,24.66 5.49,7.379 13.8,13.07 23.2,16.25 6.3,2.121 13.1,3.32 19.95,3.32 3.38,0 6.76,-0.289 10.1,-0.902 5.05,-0.969 9.96,-2.598 14.24,-5.188 2.85,-1.66 5.3,-3.871 7.1,-6.39 l -0.3,1.031 14.76,100.468 -185.7,-19 -15.98,-108.37 c 0.19,-2.02 0.1,-4.079 -0.47,-6.04 -1.04,-4.359 -3.26,-8.398 -6.12,-12.019 -5.79,-7.289 -14.34,-12.641 -23.71,-15.82 -5.96,-2.012 -12.41,-3.09 -18.89,-3.09 m 255.43,195.359 -185.67,-19 -3.24,-22.02 185.59,18.38 3.32,22.64" /><path
         id="path46"
         style="fill:#ac1515;fill-opacity:1;fill-rule:nonzero;stroke:none"
         d="m 3565.75,2972.39 c -0.47,0 -0.93,0.01 -1.39,0.03 -4.84,0.26 -10.02,1.84 -12.5,5.6 -2.41,3.78 -1.32,8.44 0.76,12.26 2.13,3.94 5.73,7.29 10.04,9.49 4.03,2.04 8.68,3.3 13.36,3.3 0.32,0 0.64,0 0.96,-0.01 2.49,-0.11 4.99,-0.55 7.24,-1.49 1.48,-0.59 2.82,-1.49 3.88,-2.58 l -0.23,0.47 -0.01,81.53 1.14,0.05 93.28,23.61 v -18.83 l -0.16,-0.04 -0.04,-71.01 c 0.23,-0.97 0.33,-1.97 0.2,-2.95 -0.2,-2.17 -0.96,-4.29 -2.09,-6.24 -2.28,-3.93 -6.02,-7.11 -10.31,-9.32 -3.91,-1.97 -8.41,-3.11 -12.91,-3.11 -0.47,0 -0.93,0.01 -1.39,0.03 -4.83,0.26 -10.02,1.84 -12.48,5.6 -2.42,3.78 -1.33,8.44 0.74,12.27 2.13,3.93 5.73,7.28 10.04,9.48 4.04,2.04 8.67,3.31 13.37,3.31 0.32,0 0.64,-0.01 0.96,-0.02 2.48,-0.11 4.98,-0.54 7.23,-1.5 1.48,-0.59 2.83,-1.49 3.88,-2.56 l -0.22,0.47 -0.01,64.78 -88.2,-22.32 -0.03,-68.7 c 0.23,-0.95 0.33,-1.95 0.2,-2.94 -0.19,-2.16 -0.97,-4.28 -2.1,-6.23 -2.27,-3.93 -6.02,-7.11 -10.31,-9.32 -3.9,-1.98 -8.41,-3.11 -12.9,-3.11" /><path
         id="path48"
         style="fill:#ac1515;fill-opacity:1;fill-rule:nonzero;stroke:none"
         d="m 1646.27,2920 h -4.64 v 45.93 l 4.64,1.2 V 2920 m -4.64,52.33 v 49.98 l 4.64,1.2 v -49.98 l -4.64,-1.2 m 0,56.37 v 54.87 h 4.64 v -53.66 l -4.64,-1.21" /><path
         id="path50"
         style="fill:#ac1515;fill-opacity:1;fill-rule:nonzero;stroke:none"
         d="m 1699.67,2926.07 h -4.65 v 53.67 l 4.65,1.2 v -54.87 m -4.65,60.06 v 49.98 l 4.65,1.2 v -49.98 l -4.65,-1.2 m 0,56.38 v 47.12 h 4.65 v -45.91 l -4.65,-1.21" /><path
         id="path52"
         style="fill:#ac1515;fill-opacity:1;fill-rule:nonzero;stroke:none"
         d="m 1624.62,3017.92 -1.54,5.99 18.55,4.79 4.64,1.21 48.75,12.6 4.65,1.21 17,4.39 1.56,-6 -18.56,-4.8 -4.65,-1.2 -48.75,-12.6 -4.64,-1.2 -17.01,-4.39" /><path
         id="path54"
         style="fill:#ac1515;fill-opacity:1;fill-rule:nonzero;stroke:none"
         d="m 1624.62,2961.53 -1.54,6.01 18.55,4.79 4.64,1.2 48.75,12.6 4.65,1.2 17,4.4 1.56,-5.99 -18.56,-4.8 -4.65,-1.2 -48.75,-12.61 -4.64,-1.2 -17.01,-4.4" /><path
         id="path56"
         style="fill:#ac1515;fill-opacity:1;fill-rule:nonzero;stroke:none"
         d="m 3035.6,1116.84 h -4.65 v 45.93 l 4.65,1.21 v -47.14 m -4.65,52.34 v 49.97 l 4.65,1.2 v -49.97 l -4.65,-1.2 m 0,56.37 v 54.86 h 4.65 v -53.66 l -4.65,-1.2" /><path
         id="path58"
         style="fill:#ac1515;fill-opacity:1;fill-rule:nonzero;stroke:none"
         d="m 3088.99,1122.91 h -4.64 v 53.67 l 4.64,1.2 v -54.87 m -4.64,60.07 v 49.97 l 4.64,1.2 v -49.97 l -4.64,-1.2 m 0,56.38 v 47.11 h 4.64 v -45.91 l -4.64,-1.2" /><path
         id="path60"
         style="fill:#ac1515;fill-opacity:1;fill-rule:nonzero;stroke:none"
         d="m 3013.95,1214.76 -1.56,5.99 18.56,4.8 4.65,1.2 48.75,12.61 4.64,1.2 17,4.39 1.56,-6.01 -18.56,-4.79 -4.64,-1.2 -48.75,-12.6 -4.65,-1.2 -17,-4.39" /><path
         id="path62"
         style="fill:#ac1515;fill-opacity:1;fill-rule:nonzero;stroke:none"
         d="m 3013.95,1158.38 -1.56,6 18.56,4.8 4.65,1.2 48.75,12.6 4.64,1.2 17,4.39 1.56,-5.99 -18.56,-4.8 -4.64,-1.2 -48.75,-12.6 -4.65,-1.21 -17,-4.39" /><path
         id="path64"
         style="fill:#ac1515;fill-opacity:1;fill-rule:nonzero;stroke:none"
         d="m 2483.21,1024.79 -7.35,2.66 92.02,254.5 7.35,-2.66 -54.19,-149.88 c 7.82,5.59 22.95,13.99 43.28,13.99 1.77,0 3.59,-0.06 5.45,-0.2 5.41,-0.75 10.95,-2.25 16.3,-5.32 2.67,-1.53 5.25,-3.48 7.55,-5.94 1.23,-1.26 2.11,-2.36 3.37,-4.15 0.36,-0.49 2.07,-3.39 2.59,-4.94 3.05,-7.38 2.45,-15.75 0.39,-22.23 -2.13,-6.62 -5.43,-12.09 -9.25,-16.93 -3.91,-4.78 -8.37,-8.89 -13.97,-12.21 -5.57,-3.07 -10.63,-4.57 -15.29,-6.04 -9.48,-2.73 -18.57,-4.93 -27.53,-7.81 -16.27,-4.9 -32.04,-11.61 -46.77,-21.93 l -3.95,-10.91 m 62.78,104.93 c -6.98,0 -15.61,-1.15 -26.26,-3.94 l -29.35,-81.17 c 26.98,32.41 82.93,32.5 83.77,65.01 -0.19,7.69 -5.25,20.1 -28.16,20.1" /><path
         id="path66"
         style="fill:#ac1515;fill-opacity:1;fill-rule:nonzero;stroke:none"
         d="m 2645.05,2869.14 -6.74,0.01 0.15,61.12 -50.17,-25.19 -0.44,122.18 6.74,0.01 0.21,-61.43 50.49,25.36 -0.24,-122.06 m -6.51,111.73 -43.7,-21.97 0.13,-43.52 43.5,21.86 0.07,43.63" /><path
         id="path68"
         style="fill:#ac1515;fill-opacity:1;fill-rule:nonzero;stroke:none"
         d="m 4441.78,2314.64 -5.96,0.01 0.12,54.04 -44.35,-22.27 -0.39,108 5.95,0.02 0.2,-54.31 44.64,22.43 -0.21,-107.92 m -5.76,98.79 -38.64,-19.42 0.12,-38.48 38.46,19.31 0.06,38.59" /><path
         id="path70"
         style="fill:#ac1515;fill-opacity:1;fill-rule:nonzero;stroke:none"
         d="m 4272.82,3677.22 c -9.99,4.67 -22.44,12.37 -23.1,28.44 -0.76,18.03 9.41,19.86 19.5,27.14 -11.25,1.33 -20.51,16.19 -23.38,27.54 -3.01,11.89 1.51,21.73 7.42,31.86 8.62,14.76 14.46,29.82 8.02,47.62 v 1.2 c 20.23,-4.85 35.9,-29.77 32.96,-42.29 -3.4,-14.51 -13.24,-21.66 -16.49,-30.82 -9.62,-27.25 21.45,-44.34 22.93,-45.04 -10.6,-1.95 -22.18,-2.22 -27.13,-14.25 -4.48,-10.87 -2.46,-20.48 -0.73,-31.4" /><path
         id="path72"
         style="fill:#ac1515;fill-opacity:1;fill-rule:nonzero;stroke:none"
         d="m 1278.79,920.988 c 46,86.792 3.39,92.692 3.22,114.872 l -51.58,-68.36 c -0.66,-1.199 -1.38,-2.359 -2.31,-3.371 -2.8,-3.258 -6.48,-5.777 -10.53,-7.629 -5.72,-2.602 -12.2,-3.781 -18.8,-3.781 -2.8,0 -5.63,0.211 -8.43,0.621 -9.43,1.422 -18.87,5.308 -26.52,11.422 -7.49,5.929 -14.02,14.418 -13.67,23.269 0.43,8.86 7.52,15.119 15.25,18.889 5.82,2.87 12.57,4.31 19.5,4.31 2.49,0 5,-0.18 7.49,-0.56 9.45,-1.42 18.95,-5.06 26.8,-11.111 3.9,-3.028 7.4,-6.579 9.94,-10.68 1.8,-2.797 2.98,-5.938 3.37,-9.039 l 0.07,0.351 118.21,156.749 4.77,-3.6 -3.67,-4.86 c -0.74,-37.77 43.94,-55.06 8.23,-109.63 -5.86,-8.98 -69.07,-85.28 -81.34,-97.862 m 28.75,148.722 -4.98,-6.61 c 1.38,-28.27 26.58,-44.51 19.4,-76.881 22.19,54.631 -15.48,62.131 -14.42,83.491 m 25.09,33.24 -5.4,-7.16 c 0.83,-27.13 24.68,-43.91 21.75,-73.19 16.33,49.81 -16.35,58.11 -16.35,80.35" /><path
         id="path74"
         style="fill:#ac1515;fill-opacity:1;fill-rule:nonzero;stroke:none"
         d="m 911.355,3153.12 c -1.031,0 -2.07,0.06 -3.109,0.17 -7.601,0.75 -15.098,4.28 -21.465,9.34 -6.336,5.09 -11.636,12.02 -14.668,19.82 -2.957,7.6 -4.14,16.67 -0.082,23.05 3.649,5.61 10.274,7.48 16.828,7.48 0.848,0 1.696,-0.03 2.532,-0.09 7.515,-0.53 15.16,-3.75 21.539,-8.83 6.347,-5.1 11.8,-11.88 15.004,-19.72 1.562,-3.9 2.629,-8.03 2.742,-12.14 0.117,-2.7 -0.328,-5.38 -1.266,-7.74 l 0.57,0.67 99.48,45.03 -95.585,119.9 -105.48,-47.68 c -1.317,-1.02 -2.774,-1.88 -4.391,-2.36 -2.516,-0.87 -5.207,-1.26 -7.938,-1.26 -1.027,0 -2.058,0.06 -3.086,0.16 -7.613,0.76 -15.109,4.29 -21.464,9.35 -6.348,5.1 -11.649,12.04 -14.676,19.81 -2.961,7.61 -4.141,16.67 -0.094,23.07 3.649,5.58 10.238,7.47 16.774,7.47 0.871,0 1.738,-0.04 2.597,-0.1 7.516,-0.53 15.16,-3.75 21.531,-8.83 6.36,-5.09 11.809,-11.88 15.012,-19.7 1.57,-3.9 2.629,-8.04 2.735,-12.14 0.117,-2.7 -0.329,-5.39 -1.258,-7.74 l 0.57,0.66 125.16,56.66 0.875,-1.72 101.088,-126.81 -28.91,-13.08 -0.18,0.22 -109.068,-49.3 c -1.317,-1.02 -2.781,-1.87 -4.391,-2.36 -2.515,-0.87 -5.199,-1.26 -7.926,-1.26" /><path
         id="path76"
         style="fill:#ac1515;fill-opacity:1;fill-rule:nonzero;stroke:none"
         d="m 3463.66,1482.65 c -0.59,0 -1.18,0.03 -1.78,0.08 -9.47,0.99 -15.77,8.98 -19.38,17.51 -3.71,8.73 -4.48,19.16 -2.42,29.22 2.08,10.08 6.57,20.09 13.53,28.16 3.48,3.99 7.51,7.57 12.06,10.04 2.97,1.68 6.24,2.73 9.43,3.01 l -1.08,0.26 -105.86,84.56 -0.01,-0.01 -32.59,26.03 125.58,157.23 32.61,-26.04 -0.07,-0.07 112.31,-89.79 c 1.89,-0.89 3.68,-2.04 5.14,-3.55 3.33,-3.22 5.82,-7.32 7.56,-11.78 3.5,-8.98 3.83,-19.42 1.8,-29.45 -2.1,-10.05 -6.84,-19.96 -13.85,-27.84 -6.42,-7.21 -15.18,-13.37 -24.08,-13.37 -0.59,0 -1.17,0.03 -1.76,0.08 -9.48,0.99 -15.78,8.98 -19.39,17.52 -3.72,8.71 -4.48,19.15 -2.42,29.22 2.08,10.06 6.57,20.07 13.53,28.14 3.5,4.01 7.52,7.57 12.08,10.05 2.97,1.68 6.22,2.71 9.41,3.02 l -1.07,0.26 -103.26,82.46 -117.5,-147.08 114.89,-91.88 c 1.91,-0.88 3.67,-2.04 5.16,-3.55 3.33,-3.22 5.81,-7.31 7.55,-11.77 3.49,-8.99 3.81,-19.42 1.79,-29.45 -2.1,-10.06 -6.82,-19.97 -13.85,-27.84 -6.41,-7.21 -15.16,-13.38 -24.06,-13.38" /><path
         id="path78"
         style="fill:#ac1515;fill-opacity:1;fill-rule:nonzero;stroke:none"
         d="m 3140.13,1435 -10.28,16.69 0.13,0.13 -6.09,9.9 -0.44,-0.43 -2.25,3.64 0.43,0.44 -30.39,49.44 c -0.74,0.72 -1.37,1.55 -1.8,2.5 -1,2.03 -1.47,4.33 -1.53,6.67 -0.13,4.72 1.45,9.59 4.04,13.89 2.64,4.29 6.47,8.07 11.01,10.54 2.97,1.62 6.4,2.79 9.62,2.79 1.58,0 3.1,-0.28 4.5,-0.94 4.2,-2.03 5.78,-6.75 6.05,-11.28 0.25,-4.65 -1.12,-9.58 -3.74,-13.89 -2.63,-4.29 -6.35,-8.17 -10.9,-10.73 -2.28,-1.27 -4.72,-2.25 -7.23,-2.63 -0.69,-0.12 -1.38,-0.18 -2.06,-0.18 -0.96,0 -1.9,0.12 -2.78,0.35 l 0.44,-0.31 27.04,-43.88 66.01,67.94 -29.13,47.37 c -0.73,0.72 -1.36,1.55 -1.79,2.5 -1,2.03 -1.47,4.33 -1.54,6.68 -0.13,4.71 1.46,9.59 4.06,13.88 2.63,4.29 6.46,8.08 11,10.54 2.97,1.62 6.4,2.79 9.62,2.79 1.58,0 3.11,-0.28 4.5,-0.93 4.2,-2.03 5.79,-6.77 6.04,-11.29 0.26,-4.65 -1.11,-9.58 -3.73,-13.89 -2.62,-4.29 -6.36,-8.16 -10.9,-10.74 -2.27,-1.26 -4.72,-2.24 -7.23,-2.63 -0.69,-0.12 -1.38,-0.17 -2.06,-0.17 -0.96,0 -1.9,0.11 -2.78,0.34 l 0.45,-0.29 44.51,-72.28 -0.98,-0.67 -69.82,-71.86 m 52.2,96.72 -66.18,-67.67 6.09,-9.9 66.01,67.95 -5.92,9.62" /><path
         id="path80"
         style="fill:#e31c1c;fill-opacity:1;fill-rule:nonzero;stroke:none"
         d="m -975.32,2197.06 -7.61,86.49 c 955.5902,1120.37 1714.864,859.32 2518.72,582.94 896.47,-308.2 1823.46,-626.92 3118.87,935.28 l 7.69,-6.38 C 4080.61,3093.83 3518.72,2710.52 2944.55,2623.55 2435.8,2546.46 1976.61,2684.35 1532.54,2837.04 732.012,3112.26 -24.1367,3312.23 -975.32,2197.06" /><path
         id="path82"
         style="fill:#e31c1c;fill-opacity:1;fill-rule:nonzero;stroke:none"
         d="m -741.121,1479.35 -8.348,65.51 c 811.9299,1228.47 1597.36,1061.9 2428.909,885.55 927.34,-196.65 1886.26,-400.02 2981.63,1308.41 l 8.42,-5.4 C 4177.59,2966.2 3666.59,2517.26 3107.3,2360.96 2611.74,2222.45 2136.73,2293.2 1677.36,2390.64 849.262,2566.24 67.0664,2702.13 -741.121,1479.35" /><path
         id="path84"
         style="fill:#e31c1c;fill-opacity:1;fill-rule:nonzero;stroke:none"
         d="m -404.859,795.309 -28.954,64.461 c 656.161,1318.26 1456.033,1248.65 2302.883,1174.95 944.39,-82.18 1920.95,-167.16 2799.95,1662.02 l 9.02,-4.33 C 4283.3,2870.96 3830.82,2363.1 3294.76,2139.8 2819.76,1941.93 2336.02,1964.04 1868.2,2004.77 1024.87,2078.14 248.285,2107.47 -404.859,795.309" /><path
         id="path86"
         style="fill:#e31c1c;fill-opacity:1;fill-rule:nonzero;stroke:none"
         d="m -21.2461,164.691 -19.4336,73.34 C 449.938,1626.43 1252.33,1654.8 2101.85,1684.86 c 947.36,33.54 1927.01,68.19 2576.53,1990.87 l 9.48,-3.21 C 4396.17,2809.09 4008.95,2249.87 3504.1,1962.91 3056.76,1708.63 2571.49,1681.47 2102.2,1664.86 1256.21,1634.94 467.117,1546.66 -21.2461,164.691" /><path
         id="path88"
         style="fill:#e31c1c;fill-opacity:1;fill-rule:nonzero;stroke:none"
         d="m 483.852,-283.418 -59.77,2.168 C 741.836,1156.58 1534.79,1282.54 2374.31,1415.9 c 936.22,148.75 1904.33,302.54 2314.7,2290.03 l 9.81,-2.02 C 4514.52,2811.36 4198.35,2209.12 3732.23,1862.77 3319.21,1555.88 2839.65,1459.71 2375.88,1386.03 1539.84,1253.22 800.156,1147.77 483.852,-283.418" /><path
         id="path90"
         style="fill:#e31c1c;fill-opacity:1;fill-rule:nonzero;stroke:none"
         d="m 4306.1,2799.61 h -4.92 v 173.22 h 4.92 v -173.22" /><path
         id="path92"
         style="fill:#e31c1c;fill-opacity:1;fill-rule:nonzero;stroke:none"
         d="m 4362.63,2806.04 h -4.93 v 173.21 h 4.93 v -173.21" /><path
         id="path94"
         style="fill:#e31c1c;fill-opacity:1;fill-rule:nonzero;stroke:none"
         d="m 4283.17,2903.31 -1.64,6.34 99.1,25.62 1.64,-6.35 -99.1,-25.61" /><path
         id="path96"
         style="fill:#e31c1c;fill-opacity:1;fill-rule:nonzero;stroke:none"
         d="m 4283.17,2843.6 -1.64,6.36 99.1,25.62 1.64,-6.36 -99.1,-25.62" /><path
         id="path98"
         style="fill:#e31c1c;fill-opacity:1;fill-rule:nonzero;stroke:none"
         d="m 3015.36,2043.52 -2.53,4.23 148.77,88.73 2.52,-4.21 -148.76,-88.75" /><path
         id="path100"
         style="fill:#e31c1c;fill-opacity:1;fill-rule:nonzero;stroke:none"
         d="m 3049.83,1998.27 -2.52,4.23 148.75,88.73 2.53,-4.23 -148.76,-88.73" /><path
         id="path102"
         style="fill:#e31c1c;fill-opacity:1;fill-rule:nonzero;stroke:none"
         d="m 3092.67,2116.34 4.6,4.66 72.78,-71.99 -4.62,-4.66 -72.76,71.99" /><path
         id="path104"
         style="fill:#e31c1c;fill-opacity:1;fill-rule:nonzero;stroke:none"
         d="m 3041.39,2085.75 4.63,4.67 72.75,-71.99 -4.61,-4.66 -72.77,71.98" /><path
         id="path106"
         style="fill:#e31c1c;fill-opacity:1;fill-rule:nonzero;stroke:none"
         d="m 942.273,2558.77 -0.203,70.22 70.51,35.45 -0.12,-70.41 z m -0.261,81.42 -0.364,99.12 -10.855,-0.02 0.699,-197.14 80.938,40.65 -0.21,-98.62 10.86,-0.02 0.4,196.95 -81.468,-40.92" /><path
         id="path108"
         style="fill:#e31c1c;fill-opacity:1;fill-rule:nonzero;stroke:none"
         d="m 669.566,1432.87 c -54.136,62.11 -205.343,307.23 45.571,415.02 100.515,43.22 208.09,5.57 261.593,-55.12 54.91,-62.2 144.92,-323.65 -134.984,-451.97 -118.539,-54.39 -324.207,-44.73 -427.449,28.15 -350.4259,247.28 -94.031,578.1 -63.633,625.19 112.59,174.24 593.246,524.45 350.941,1161.36 -22.078,58 -59.492,119.47 -119.375,149.98 -106.25,54.13 -193.816,-29.71 -240.921,-110.33 -58.071,-99.37 -55.235,-296.15 -30.625,-401.63 84.921,-363.96 278.957,-711.9 288.504,-736.02 16.425,-41.37 192.898,-406.88 206.324,-432.13 214.078,-401.84 241.588,-554.41 243.768,-695.21 2.54,-164.59 -219.69,-322.289 -361.436,-188.89 41.183,2.519 136.804,66.312 110.867,163.218 -33.637,125.492 -159.762,131.022 -245.336,74.262 -81.32,-53.91 -83.184,-173.102 -9.535,-255.078 83.676,-93.141 303.047,-120.801 440.246,-29.652 302.474,201 -86.094,864.85 -147.77,981.04 -69.128,130.21 -448.175,858.28 -467.836,1177.24 -9.89,160.59 91.407,333.12 193.028,274.09 109.984,-63.87 115.332,-218.94 111.027,-274.38 -13.918,-178.43 -118.426,-335.13 -236.133,-472.97 -114.246,-133.81 -247.246,-297.63 -307.929,-459.9 -66.3089,-177.34 -5.758,-438.91 154.84,-562.23 54.75,-42.03 188.699,-126.01 370.167,-118.36 271.52,11.53 622.7,189.87 533.42,546.31 -78.52,313.5 -495.478,328.25 -668.427,142.33 -39.274,-42.23 -70.368,-96.47 -82.555,-153.3 -32.41,-151.08 69.398,-328.05 233.648,-341.02" /><path
         id="path110"
         style="fill:#e31c1c;fill-opacity:1;fill-rule:nonzero;stroke:none"
         d="m 1738.08,1277.89 c 4.14,-16.7 7.03,-34.11 6.07,-52 -0.54,-8.9 -2.33,-17.88 -6.1,-25.82 -3.82,-7.89 -9.84,-14.47 -17.29,-17.33 -7.39,-2.86 -15.59,-1.86 -22.4,2.17 -2.16,1.2 -4.15,2.72 -6.09,4.37 l 32.31,125.04 c 5.9,-11.32 10.25,-23.7 13.5,-36.43 z m -56.77,-75.67 c -8.87,14.44 -14.19,30.96 -18.48,47.54 -4.14,16.69 -6.47,34.17 -5.22,51.71 1.04,17.21 7.51,35.92 22.28,43.43 14.9,4.43 28.24,-5.71 37.12,-18.1 l -33.13,-128.24 c -0.89,1.2 -1.77,2.41 -2.57,3.66 z m 56.18,203.88 -16.26,-62.99 c -4.92,3.49 -10.16,6.37 -15.76,8.2 -1.04,0.39 -2.11,0.52 -3.15,0.79 l 0.42,0.08 -358.44,92.6 -3.17,-12.26 329.88,-85.22 c -5.95,-3.31 -11.32,-8.33 -15.49,-14.32 -6.02,-8.39 -10.21,-18.29 -12.99,-28.5 -5.52,-20.53 -4.93,-42.42 0.03,-62.29 5,-19.9 15.41,-37.97 29.65,-50.45 2.59,-2.3 5.38,-4.41 8.25,-6.39 l -12.04,-46.61 10.12,-2.61 11.29,43.7 c 10.2,-4.86 21.36,-6.75 32.38,-2.81 17.85,6.62 29.29,26.54 34.91,46.28 5.82,20.2 5.79,42.14 0.83,62 -4.92,19.38 -14.31,37.38 -27.85,50.42 l 17.51,67.77 -10.12,2.61" /><path
         id="path112"
         style="fill:#e31c1c;fill-opacity:1;fill-rule:nonzero;stroke:none"
         d="m 3955.26,2901.49 c -0.46,-1.29 -0.8,-2.62 -1.03,-4.03 l -1.4,2.83 z m 27.36,7.38 c 8.51,-2.46 16.62,-6.88 24.17,-12.16 7.51,-5.34 14.77,-11.42 20.64,-19.02 2.88,-3.82 5.29,-8.08 6.53,-12.64 1.21,-4.52 1.07,-9.31 -0.98,-13.07 -1.99,-3.76 -5.69,-6.21 -9.85,-6.95 -4.16,-0.86 -8.68,-0.22 -12.97,1.09 -8.67,2.76 -16.6,7.61 -24.14,12.86 -7.5,5.35 -14.57,11.63 -20.19,19.2 -5.58,7.36 -9.48,17.24 -6.1,25.44 4.78,7.43 14.61,7.6 22.89,5.25 z m -50.39,20.63 12.57,-25.58 -156.39,-76.94 2.99,-6.09 156.4,76.94 7.84,-15.97 c 0.81,-2.63 1.83,-5.21 3.02,-7.74 1.38,-2.85 3.03,-5.58 4.82,-8.18 l 34.07,-69.25 5.03,2.47 -25.9,52.65 c 1.25,-1.01 2.45,-2.08 3.75,-3 8.98,-6.33 19.52,-10.05 29.68,-10.14 9.91,-0.13 20.42,2.65 25.47,11.49 4.94,8.92 2.63,21.02 -1.98,31.01 -4.69,10.25 -12.37,19.14 -21.32,25.5 -8.96,6.27 -19.34,10.43 -29.63,10.85 -5.12,0.21 -10.19,-0.47 -14.77,-2.37 l -1.55,-0.76 0.14,0.17 -16.63,-8.18 -12.58,25.59 -5.03,-2.47" /><path
         id="path114"
         style="fill:#e31c1c;fill-opacity:1;fill-rule:nonzero;stroke:none"
         d="m 1228.44,2668.87 -0.31,-12.67 340.6,-8.39 c -5.05,-4.56 -9.15,-10.67 -11.83,-17.44 -3.98,-9.55 -5.81,-20.14 -6.22,-30.72 -0.73,-21.24 4.79,-42.42 14.12,-60.65 9.36,-18.26 23.59,-33.5 40.28,-42.44 16.28,-8.77 36.05,-13.3 52.04,-3.02 15.89,10.48 22.52,32.48 23.55,52.97 1.09,20.99 -3.93,42.35 -13.23,60.59 -9.38,18.15 -22.93,33.98 -39.59,43.56 -8.27,4.76 -17.25,8.03 -26.45,8.88 -1.08,0.12 -2.15,0.01 -3.24,0.04 l 0.39,0.16 -370.11,9.13" /><path
         id="path116"
         style="fill:#e31c1c;fill-opacity:1;fill-rule:nonzero;stroke:none"
         d="m 2662.82,2513.39 4.93,7.55 -202.63,132.35 c 4.75,0.87 9.51,3.02 13.65,6.11 6,4.29 11.05,10 15.25,16.24 8.37,12.55 12.95,27.41 14.13,41.9 1.17,14.54 -1.72,29.07 -8.48,40.71 -6.54,11.38 -16.8,21.5 -30.31,21.27 -13.5,-0.39 -25.74,-11.21 -34.02,-23.21 -8.49,-12.27 -13.46,-27.05 -14.65,-41.54 -1.12,-14.48 1.16,-29.1 7.65,-41.11 3.2,-5.97 7.41,-11.31 12.65,-15.26 l 1.94,-1.24 -0.29,0.06 220.18,-143.83" /><path
         id="path118"
         style="fill:#e31c1c;fill-opacity:1;fill-rule:nonzero;stroke:none"
         d="m 2063.09,1561.64 -3.82,8.16 -205.19,-96.43 c 1.55,4.42 2.06,9.52 1.52,14.61 -0.67,7.28 -2.93,14.56 -6.04,21.39 -6.3,13.73 -16.3,25.55 -27.62,34.34 -11.35,8.82 -24.64,14.27 -37.4,14.94 -12.46,0.75 -25.65,-2.3 -31.9,-13.62 -6.13,-11.41 -3.09,-27.37 2.78,-40.72 6.01,-13.65 15.76,-25.75 27.07,-34.55 11.34,-8.76 24.4,-14.76 37.34,-15.85 6.42,-0.57 12.82,0.03 18.54,2.23 l 1.95,0.94 -0.18,-0.21 222.95,104.77" /><path
         id="path120"
         style="fill:#e31c1c;fill-opacity:1;fill-rule:nonzero;stroke:none"
         d="m 4640,3532.64 -2.83,6.04 -151.57,-71.24 c 1.14,3.26 1.51,7.03 1.11,10.79 -0.49,5.38 -2.16,10.75 -4.45,15.8 -4.65,10.14 -12.05,18.88 -20.41,25.37 -8.38,6.51 -18.2,10.54 -27.63,11.04 -9.21,0.54 -18.95,-1.71 -23.57,-10.06 -4.53,-8.43 -2.27,-20.23 2.06,-30.09 4.44,-10.08 11.64,-19.02 19.99,-25.52 8.38,-6.47 18.04,-10.9 27.59,-11.71 4.75,-0.42 9.47,0.02 13.7,1.65 l 1.44,0.69 -0.14,-0.15 164.71,77.39" /><path
         id="path122"
         style="fill:#e31c1c;fill-opacity:1;fill-rule:nonzero;stroke:none"
         d="m 3711.71,3146.29 -7.07,-2.1 56.59,-190.18 c -3.43,1.98 -7.55,3.15 -11.78,3.42 -6.01,0.48 -12.21,-0.4 -18.14,-2.08 -11.89,-3.41 -22.63,-10.28 -31.06,-18.73 -8.43,-8.48 -14.31,-19.09 -16.25,-29.94 -1.95,-10.6 -0.89,-22.37 7.68,-29.37 8.65,-6.91 22.05,-6.64 33.59,-3.51 11.8,3.17 22.75,9.78 31.16,18.22 8.37,8.46 14.71,18.81 17.02,29.76 1.14,5.43 1.34,11 0.16,16.25 l -0.56,1.8 0.15,-0.19 -61.49,206.65" /><path
         id="path124"
         style="fill:#e31c1c;fill-opacity:1;fill-rule:nonzero;stroke:none"
         d="m 3738.88,2186.78 -7.25,1.42 -37.52,-191.51 c -2.11,3.3 -5.22,6.21 -8.85,8.39 -5.11,3.18 -11.02,5.27 -17.05,6.54 -12.12,2.47 -24.81,1.44 -36.17,-2.04 -11.4,-3.51 -21.5,-10.05 -28.21,-18.58 -6.63,-8.33 -11.11,-19.07 -6.75,-29.1 4.49,-10 16.49,-15.9 28.16,-18.49 11.94,-2.66 24.69,-1.93 36.03,1.54 11.34,3.52 21.73,9.6 28.83,18.08 3.5,4.2 6.27,8.95 7.63,14.07 l 0.33,1.83 0.05,-0.25 40.77,208.1" /><path
         id="path126"
         style="fill:#e31c1c;fill-opacity:1;fill-rule:nonzero;stroke:none"
         d="m 4222.81,3008 -7.31,1.06 -27.64,-193.19 c -2.27,3.19 -5.54,5.93 -9.26,7.92 -5.28,2.92 -11.29,4.7 -17.36,5.65 -12.24,1.85 -24.86,0.17 -36.03,-3.89 -11.2,-4.09 -20.95,-11.14 -27.21,-20.01 -6.2,-8.65 -10.11,-19.6 -5.25,-29.4 5,-9.75 17.29,-15.04 29.07,-17.02 12.07,-2.04 24.75,-0.66 35.9,3.39 11.15,4.09 21.22,10.7 27.87,19.53 3.28,4.38 5.8,9.27 6.9,14.44 l 0.23,1.85 0.06,-0.24 30.03,209.91" /><path
         id="path128"
         style="fill:#e31c1c;fill-opacity:1;fill-rule:nonzero;stroke:none"
         d="m 3446.11,1918.06 c -2.07,-12.84 -6.88,-24.92 -12.98,-36.16 -6.19,-11.15 -13.41,-21.89 -22.96,-30.44 -4.78,-4.22 -10.29,-7.68 -16.36,-9.36 -6.04,-1.64 -12.66,-1.19 -18.14,2.09 -5.47,3.22 -9.42,8.92 -11.08,15.31 -1.83,6.35 -1.62,13.17 -0.53,19.65 2.47,13.01 7.93,24.82 13.98,36.02 6.16,11.17 13.73,21.58 23.26,29.78 9.26,8.15 22.22,13.61 34.05,8.11 10.98,-7.62 12.75,-22.54 10.76,-35 z m -142.71,298.64 -7.91,-4.28 136.24,-252.51 c -4.9,2.07 -10.36,2.91 -15.65,2.46 -7.52,-0.47 -14.79,-2.87 -21.45,-6.35 -13.39,-7.01 -24.09,-18.57 -31.44,-31.89 -7.32,-13.34 -10.81,-29.18 -9.37,-44.59 1.37,-15.04 6.79,-31.13 19.74,-39.2 13.04,-7.91 29.32,-4.96 42.36,1.56 13.34,6.68 24.41,17.93 31.78,31.24 7.21,13.32 11.35,28.86 10.32,44.47 -0.51,7.75 -2.24,15.5 -5.54,22.54 l -1.3,2.38 0.26,-0.23 -148.04,274.4" /><path
         id="path130"
         style="fill:#e31c1c;fill-opacity:1;fill-rule:nonzero;stroke:none"
         d="m 2206.5,2173.94 c -6.06,-11.5 -14.47,-21.42 -23.82,-30.12 -9.43,-8.61 -19.7,-16.48 -31.48,-21.55 -5.88,-2.47 -12.2,-3.99 -18.49,-3.66 -6.24,0.37 -12.38,2.91 -16.52,7.78 -4.17,4.79 -6.09,11.46 -5.62,18.03 0.28,6.6 2.65,13.01 5.76,18.8 6.49,11.55 15.43,21.01 24.72,29.68 9.4,8.62 19.9,16.08 31.55,20.81 11.37,4.79 25.39,5.83 34.86,-3.16 7.97,-10.73 4.89,-25.43 -0.96,-36.61 z m -40.06,328.56 -8.87,-1.54 48.64,-282.76 c -3.98,3.52 -8.9,6.06 -14.04,7.32 -7.29,1.95 -14.94,2 -22.37,0.82 -14.92,-2.38 -28.75,-9.92 -39.96,-20.21 -11.19,-10.31 -19.55,-24.21 -23.1,-39.27 -3.5,-14.69 -3.48,-31.67 6.22,-43.46 9.84,-11.65 26.21,-14.04 40.64,-12.01 14.77,2.08 28.86,9.21 40.08,19.46 11.09,10.32 19.97,23.75 23.96,38.87 1.99,7.51 2.82,15.41 1.93,23.13 -0.07,0.91 -0.3,1.77 -0.47,2.67 l 0.17,-0.31 -52.83,307.29" /><path
         id="path132"
         style="fill:#e31c1c;fill-opacity:1;fill-rule:nonzero;stroke:none"
         d="m 4069.39,3274.01 c 7.02,6.31 15.22,10.95 23.76,14.53 8.56,3.47 17.53,6.26 26.79,6.75 4.61,0.21 9.29,-0.33 13.48,-2.14 4.16,-1.82 7.68,-5.07 9.3,-9.41 1.62,-4.31 1.26,-9.32 -0.7,-13.68 -1.84,-4.41 -5.07,-8.18 -8.62,-11.33 -7.3,-6.22 -15.75,-10.41 -24.24,-13.99 -8.55,-3.51 -17.56,-5.95 -26.65,-6.25 -8.94,-0.39 -18.73,2.4 -22.91,10.88 -2.75,9.28 3.05,18.52 9.79,24.64 z m -54.99,-233.37 6.4,-1.18 37.73,204.41 c 1.82,-3.4 4.53,-6.36 7.71,-8.51 4.46,-3.14 9.67,-5.08 15,-6.15 10.74,-2.11 22.03,-0.45 32.21,3.73 10.21,4.2 19.37,11.57 25.54,20.92 6.05,9.1 10.32,20.66 6.67,31.09 -3.78,10.38 -14.3,16.11 -24.63,18.34 -10.55,2.29 -21.91,0.98 -32.11,-3.19 -10.12,-4.25 -19.52,-11.15 -26.02,-20.44 -3.24,-4.59 -5.77,-9.76 -7.11,-15.23 l -0.34,-1.92 -0.05,0.23 -41,-222.1" /><path
         id="path134"
         style="fill:#e31c1c;fill-opacity:1;fill-rule:nonzero;stroke:none"
         d="m 2539.87,2167.51 2.5,14.61 c 15.86,-34.9 82.02,-15.94 91.51,-121.16 -15.15,57.46 -68.63,62.65 -94.01,106.55 z m 107.17,-26.4 c -19.35,49.04 -71.13,56.19 -94.71,98.71 l 2.72,15.85 c 18.25,-35.44 77.13,-21.82 91.99,-114.56 z m 20.86,3.17 c 12.05,116.27 -73.3,107.13 -103.09,167.87 l 1.83,10.75 -10.58,1.83 -59.58,-346.75 0.17,-0.59 c -3.15,4.6 -7.62,8.62 -12.78,11.61 -7.41,4.45 -15.93,7.23 -24.6,8.85 -17.46,3.2 -35.62,1.19 -51.81,-4.3 -16.21,-5.53 -30.54,-15.41 -39.94,-28.13 -9.21,-12.35 -15.34,-28.14 -8.79,-42.6 6.75,-14.38 24.08,-22.55 40.89,-25.86 17.23,-3.44 35.45,-1.89 51.64,3.59 16.11,5.55 30.84,14.81 40.77,27.41 4.93,6.26 8.72,13.27 10.52,20.77 0.65,2.39 0.85,4.82 0.87,7.28 l 26.06,151.23 c 18.49,-35.18 91.19,-9.6 89.19,-185.62 9.21,30.13 47.25,203.55 49.23,222.66" /><path
         id="path136"
         style="fill:#e31c1c;fill-opacity:1;fill-rule:nonzero;stroke:none"
         d="m 1969.07,2089.25 7.87,9.4 -9.62,8.07 -216.93,-258.93 c -0.41,6.73 -2.62,13.68 -6.21,19.95 -4.95,8.98 -12.02,16.93 -19.97,23.8 -16.03,13.68 -35.87,22.47 -55.76,26.51 -19.94,4.03 -40.55,2.42 -57.81,-5.02 -16.85,-7.2 -32.56,-19.74 -34.48,-38.49 -1.68,-18.78 11.27,-37.53 26.54,-50.97 15.6,-13.81 35.27,-23.12 55.14,-27.18 19.88,-3.93 40.53,-3.2 58.25,3.8 8.79,3.46 16.87,8.4 23.22,15.03 l 2.03,2.49 -0.12,-0.42 180.38,215.29 c -15.85,-63.92 102,-89.09 -0.36,-225.45 176.89,192.84 37.28,141.54 47.83,282.12" /><path
         id="path138"
         style="fill:#e31c1c;fill-opacity:1;fill-rule:nonzero;stroke:none"
         d="m 2909.61,1932.79 -2.31,12.05 -12.33,-2.35 63.43,-331.78 c -5.47,3.94 -12.26,6.62 -19.39,7.81 -10.07,1.84 -20.71,1.38 -31.06,-0.43 -20.72,-3.77 -40.09,-13.58 -55.79,-26.44 -15.72,-12.89 -27.51,-29.88 -32.66,-47.96 -5.09,-17.61 -5.3,-37.7 8.01,-51.05 13.49,-13.18 36.2,-14.99 56.27,-11.66 20.57,3.35 40.21,12.7 55.93,25.52 15.6,12.92 28.09,29.39 33.88,47.53 2.87,9.01 4.16,18.4 3.04,27.49 -0.1,1.09 -0.43,2.08 -0.63,3.16 l 0.23,-0.35 -52.73,275.87 c 39.5,-52.7 133.52,22.68 174.44,-142.84 -37.56,258.97 -86.09,118.37 -188.33,215.43" /><path
         id="path140"
         style="fill:#e31c1c;fill-opacity:1;fill-rule:nonzero;stroke:none"
         d="m 1315.45,3191.7 7.56,31.65 c 6.01,-43.51 61.39,-26.89 62.88,-131.04 -14.75,46.36 -56.54,52.5 -70.44,99.39 z m 23.37,97.69 4.89,20.4 -9.85,1.78 -94.59,-395.79 c -2.24,5.03 -5.57,9.48 -9.65,12.82 -6.04,5.17 -13.29,8.48 -20.82,10.39 -15.14,3.85 -31.53,1.74 -46.6,-4.37 -15.07,-6.15 -28.99,-17.34 -38.88,-31.77 -9.68,-14.09 -17.05,-32.1 -12.94,-48.73 4.22,-16.54 18.7,-26.05 33.22,-30.06 14.91,-4.12 31.32,-2.55 46.38,3.56 15,6.19 29.21,16.65 39.55,30.97 5.15,7.11 9.36,15.11 11.87,23.69 0.51,1.58 0.82,3.24 1.11,4.86 l 0.03,-0.1 58.63,245 c 3.17,-64.83 77.57,-61.38 62.87,-186.65 l 51.79,216.69 c -1.65,66.79 -59.33,63.13 -77.01,127.31" /><path
         id="path142"
         style="fill:#e31c1c;fill-opacity:1;fill-rule:nonzero;stroke:none"
         d="m 3419.66,2938.78 -0.74,15.9 c 8.73,-19.64 32.49,-4.31 47.31,-53.05 -13.21,19.77 -33.69,16.99 -46.57,37.15 z m -2.28,49.08 -0.47,10.25 -4.87,-0.51 9.25,-198.84 c -1.75,2.07 -3.92,3.71 -6.28,4.72 -3.55,1.61 -7.39,2.18 -11.19,2.07 -7.64,-0.26 -15.06,-3.47 -21.31,-8.38 -6.25,-4.94 -11.28,-12.09 -13.97,-20.21 -2.63,-7.94 -3.65,-17.4 0.52,-24.66 4.24,-7.2 12.34,-9.71 19.71,-9.61 7.56,0.08 15.06,3.05 21.3,7.95 6.22,4.95 11.47,11.79 14.39,19.93 1.46,4.03 2.36,8.37 2.37,12.74 l -0.14,2.44 0.02,-0.05 -5.68,123.09 c 10.29,-30.03 44.79,-18.32 54.87,-79.19 l -5.05,108.87 c -9.84,31.17 -36.45,21.62 -53.47,49.39" /><path
         id="path144"
         style="fill:#e31c1c;fill-opacity:1;fill-rule:nonzero;stroke:none"
         d="m 2946.43,2401.52 -0.75,15.9 c 8.73,-19.64 32.49,-4.31 47.32,-53.06 -13.22,19.79 -33.69,17 -46.57,37.16 z m -2.28,49.07 -0.47,10.26 -4.87,-0.51 9.25,-198.83 c -1.75,2.06 -3.92,3.7 -6.28,4.71 -3.55,1.62 -7.39,2.18 -11.19,2.07 -7.64,-0.26 -15.06,-3.46 -21.31,-8.38 -6.25,-4.94 -11.28,-12.09 -13.97,-20.22 -2.63,-7.93 -3.65,-17.4 0.52,-24.65 4.24,-7.21 12.33,-9.71 19.71,-9.61 7.56,0.08 15.06,3.05 21.3,7.95 6.22,4.94 11.47,11.8 14.39,19.92 1.46,4.04 2.35,8.39 2.36,12.75 l -0.13,2.43 0.02,-0.04 -5.68,123.09 c 10.29,-30.02 44.79,-18.32 54.87,-79.18 l -5.05,108.87 c -9.85,31.16 -36.45,21.62 -53.47,49.37" /><path
         id="path146"
         style="fill:#e31c1c;fill-opacity:1;fill-rule:nonzero;stroke:none"
         d="m 4378.14,3304.55 -2.46,15.73 c 10.79,-18.58 32.77,-0.78 52.77,-47.63 -15.28,18.23 -35.34,13.26 -50.31,31.9 z m -7.56,48.55 -1.58,10.14 -4.79,-1.03 30.66,-196.68 c -1.96,1.87 -4.29,3.26 -6.76,4.01 -3.7,1.22 -7.58,1.37 -11.34,0.85 -7.56,-1.08 -14.59,-5.07 -20.28,-10.63 -5.68,-5.58 -9.91,-13.24 -11.71,-21.6 -1.75,-8.17 -1.75,-17.7 3.18,-24.45 4.99,-6.71 13.31,-8.32 20.62,-7.44 7.52,0.9 14.65,4.66 20.33,10.21 5.65,5.59 10.13,12.96 12.15,21.37 1.02,4.16 1.44,8.57 0.98,12.92 l -0.4,2.41 0.02,-0.04 -18.92,121.75 c 13.46,-28.74 46.5,-13.38 63.09,-72.8 l -16.77,107.69 c -13.15,29.92 -38.56,17.55 -58.48,43.32" /><path
         id="path148"
         style="fill:#e31c1c;fill-opacity:1;fill-rule:nonzero;stroke:none"
         d="m 3923.66,2262.4 1.73,-15.82 c -9.93,19.06 -32.69,2.27 -50.53,49.98 14.43,-18.9 34.68,-14.86 48.8,-34.16 z m 5.34,-48.84 1.11,-10.19 4.82,0.8 -21.64,197.87 c 1.89,-1.96 4.14,-3.46 6.57,-4.31 3.65,-1.39 7.51,-1.72 11.3,-1.37 7.6,0.73 14.81,4.39 20.74,9.69 5.93,5.32 10.51,12.77 12.68,21.04 2.14,8.1 2.57,17.6 -2.05,24.58 -4.68,6.92 -12.91,8.92 -20.26,8.36 -7.56,-0.55 -14.85,-3.98 -20.78,-9.27 -5.89,-5.32 -10.71,-12.48 -13.12,-20.78 -1.2,-4.12 -1.83,-8.5 -1.56,-12.86 l 0.29,-2.43 -0.03,0.04 13.34,-122.49 c -12.13,29.33 -45.83,15.49 -59.68,75.61 l 11.83,-108.34 c 11.76,-30.49 37.71,-19.31 56.44,-45.95" /><path
         id="path150"
         style="fill:#e31c1c;fill-opacity:1;fill-rule:nonzero;stroke:none"
         d="m 2199.36,1505.75 -0.08,-176.79 -0.43,-0.1 v -46.88 l 232.24,58.79 2.84,0.14 -0.03,202.93 -0.55,1.17 c 2.62,-2.7 5.95,-4.92 9.66,-6.41 5.59,-2.36 11.79,-3.43 18.01,-3.71 12.48,-0.45 24.94,2.76 35.67,8.21 10.72,5.46 19.7,13.79 25,23.59 5.16,9.53 7.85,21.15 1.85,30.55 -6.13,9.35 -19.05,13.3 -31.08,13.92 -12.33,0.67 -24.87,-2.22 -35.6,-7.67 -10.69,-5.47 -20,-13.42 -25.66,-23.19 -2.81,-4.84 -4.75,-10.11 -5.25,-15.51 -0.32,-2.48 -0.07,-4.96 0.51,-7.34 l -0.07,-170.99 -219.58,-55.59 -0.02,161.29 -0.54,1.17 c 2.6,-2.69 5.94,-4.92 9.66,-6.41 5.57,-2.36 11.79,-3.45 18.01,-3.71 12.47,-0.47 24.93,2.76 35.65,8.19 10.73,5.49 19.71,13.81 25,23.59 5.17,9.55 7.86,21.15 1.85,30.57 -6.12,9.35 -19.04,13.28 -31.07,13.92 -12.34,0.67 -24.88,-2.24 -35.6,-7.67 -10.68,-5.49 -20,-13.42 -25.66,-23.19 -2.81,-4.86 -4.74,-10.11 -5.24,-15.52 -0.31,-2.46 -0.08,-4.95 0.51,-7.35" /><path
         id="path152"
         style="fill:#e31c1c;fill-opacity:1;fill-rule:nonzero;stroke:none"
         d="m 4285.16,2417.96 -59.53,132.58 0.27,0.22 -15.79,35.15 -154.31,-122.37 -2.07,-1.06 68.43,-152.13 0.8,-0.7 c -2.87,1.15 -6.11,1.69 -9.4,1.55 -4.99,-0.12 -10.01,-1.4 -14.76,-3.29 -9.49,-3.88 -17.77,-10.47 -23.97,-18.18 -6.2,-7.7 -10.12,-16.98 -10.79,-26.11 -0.66,-8.88 1.24,-18.51 8.91,-23.52 7.75,-4.94 18.76,-3.56 28,0.03 9.47,3.66 17.9,10.05 24.1,17.76 6.17,7.71 10.47,16.8 11.42,26.03 0.47,4.58 0.14,9.18 -1.29,13.39 -0.6,1.97 -1.63,3.74 -2.87,5.34 l -57.58,128.22 145.88,115.7 54.39,-120.92 0.8,-0.69 c -2.85,1.14 -6.11,1.68 -9.4,1.53 -4.97,-0.09 -10.01,-1.38 -14.75,-3.28 -9.51,-3.85 -17.77,-10.47 -23.97,-18.15 -6.21,-7.74 -10.13,-17 -10.8,-26.12 -0.65,-8.9 1.25,-18.5 8.93,-23.54 7.72,-4.96 18.75,-3.53 27.98,0.04 9.48,3.67 17.9,10.06 24.11,17.75 6.14,7.71 10.47,16.8 11.42,26.03 0.46,4.59 0.15,9.19 -1.31,13.41 -0.6,1.95 -1.6,3.73 -2.85,5.33" /><path
         id="path154"
         style="fill:#e31c1c;fill-opacity:1;fill-rule:nonzero;stroke:none"
         d="m 1152.37,2293.64 c 53.8,4.82 112.93,-43.53 116.05,-76.75 3.63,-38.5 -14.67,-64.23 -15.06,-89.43 -1.15,-75.02 89.41,-91.33 93.66,-91.85 -24.49,-13.55 -52.74,-23.81 -54.96,-57.47 -2.03,-30.48 10.89,-52.41 24.2,-77.86 -28.46,3.19 -65.45,11.89 -80.37,50.84 -16.8,43.74 6.73,56.64 25.53,82.89 -28.77,-6.02 -63.87,22.86 -80.3,48.4 -17.22,26.78 -14.24,54.71 -8.07,84.52 9,43.44 10.91,85.31 -19.69,123.76 l -0.99,2.95" /><path
         id="path156"
         style="fill:#e31c1c;fill-opacity:1;fill-rule:nonzero;stroke:none"
         d="m 1901.86,2515.54 0.18,0.07 7.49,2.7 435.75,156.99 v 0.02 l 0.24,0.08 -74.4,206.42 c 3.93,-1.97 8.55,-3.01 13.24,-3.03 6.66,-0.17 13.44,1.2 19.89,3.42 12.92,4.51 24.35,12.77 33.12,22.61 8.78,9.89 14.61,21.98 16.08,34.09 1.47,11.82 -0.42,24.73 -10.32,31.94 -9.99,7.09 -24.75,5.95 -37.28,1.79 -12.86,-4.25 -24.52,-12.24 -33.29,-22.07 -8.71,-9.87 -15.06,-21.69 -16.92,-33.93 -0.94,-6.07 -0.8,-12.23 0.85,-17.95 l 0.73,-1.95 -0.2,0.19 65.16,-180.86 -210.32,-75.78 -58.73,162.98 c 3.93,-1.97 8.55,-3 13.24,-3.03 6.67,-0.16 13.44,1.2 19.9,3.44 12.92,4.5 24.34,12.75 33.11,22.6 8.77,9.88 14.62,21.99 16.08,34.08 1.48,11.82 -0.42,24.74 -10.31,31.95 -10,7.09 -24.75,5.95 -37.3,1.78 -12.86,-4.24 -24.52,-12.23 -33.28,-22.06 -8.73,-9.88 -15.06,-21.71 -16.93,-33.94 -0.93,-6.06 -0.8,-12.22 0.86,-17.94 l 0.72,-1.95 -0.19,0.19 65.16,-180.87 -210.31,-75.77 -58.72,162.99 c 3.92,-1.97 8.53,-3.01 13.21,-3.04 6.67,-0.17 13.46,1.2 19.91,3.42 12.91,4.51 24.35,12.78 33.12,22.62 8.76,9.88 14.6,21.98 16.06,34.08 1.48,11.81 -0.4,24.74 -10.31,31.94 -9.99,7.09 -24.74,5.94 -37.29,1.78 -12.86,-4.24 -24.5,-12.22 -33.29,-22.06 -8.71,-9.86 -15.05,-21.69 -16.92,-33.93 -0.92,-6.06 -0.78,-12.22 0.85,-17.95 l 0.73,-1.95 -0.19,0.2 80.82,-224.31" /><path
         id="path158"
         style="fill:#e31c1c;fill-opacity:1;fill-rule:nonzero;stroke:none"
         d="m 3555.76,2545.44 -8.9,22.2 173.59,69.54 8.9,-22.19 z m -179.92,-72.08 -8.9,22.2 173.6,69.54 8.88,-22.2 z m 336.58,202.22 -0.16,-0.07 -6.19,-2.47 -359.62,-144.09 v 0 l -0.19,-0.08 68.25,-170.36 c -3.34,1.53 -7.23,2.26 -11.15,2.14 -5.57,-0.06 -11.19,-1.39 -16.51,-3.45 -10.67,-4.15 -19.99,-11.39 -27.02,-19.88 -7.06,-8.51 -11.57,-18.8 -12.45,-28.97 -0.89,-9.91 1.09,-20.65 9.57,-26.39 8.56,-5.64 20.86,-4.25 31.22,-0.39 10.62,3.93 20.12,10.95 27.17,19.43 7,8.49 11.95,18.58 13.17,28.86 0.58,5.11 0.29,10.24 -1.24,14.97 l -0.68,1.62 0.18,-0.16 -47.64,118.85 173.59,69.53 41.71,-104.08 c -3.34,1.53 -7.24,2.26 -11.16,2.15 -5.57,-0.05 -11.18,-1.41 -16.5,-3.46 -10.69,-4.15 -19.98,-11.38 -27.02,-19.87 -7.06,-8.52 -11.59,-18.8 -12.46,-28.97 -0.87,-9.92 1.09,-20.67 9.56,-26.4 8.58,-5.63 20.87,-4.24 31.25,-0.39 10.59,3.93 20.11,10.95 27.16,19.43 7,8.5 11.95,18.57 13.16,28.85 0.58,5.12 0.28,10.25 -1.24,14.98 l -0.67,1.62 0.17,-0.16 -47.63,118.85 173.59,69.54 41.7,-104.09 c -3.33,1.53 -7.23,2.27 -11.16,2.14 -5.56,-0.05 -11.19,-1.39 -16.5,-3.44 -10.67,-4.16 -19.98,-11.39 -27.03,-19.89 -7.05,-8.51 -11.56,-18.79 -12.43,-28.97 -0.9,-9.91 1.06,-20.65 9.56,-26.39 8.56,-5.63 20.85,-4.23 31.22,-0.39 10.61,3.93 20.13,10.96 27.18,19.43 6.99,8.5 11.94,18.57 13.15,28.86 0.6,5.1 0.29,10.24 -1.24,14.98 l -0.66,1.61 0.15,-0.16 -74.16,185.13" /><path
         id="path160"
         style="fill:#e31c1c;fill-opacity:1;fill-rule:nonzero;stroke:none"
         d="m 2949.21,2623.86 1.6,16.47 128.76,-12.62 -1.61,-16.46 z m -133.47,13.08 1.61,16.47 128.77,-12.62 -1.62,-16.47 z m 271.14,16.91 -0.12,0.01 -4.58,0.45 -266.77,26.14 -0.14,0.01 -12.38,-126.37 c -1.56,2.01 -3.72,3.69 -6.17,4.87 -3.44,1.74 -7.32,2.71 -11.24,3.15 -7.87,0.85 -15.9,-0.63 -22.92,-3.6 -7.05,-2.98 -13.1,-7.86 -16.88,-13.82 -3.71,-5.8 -5.92,-13.03 -2.54,-19.26 3.46,-6.19 11.46,-9.26 19.06,-10.19 7.76,-0.97 15.84,0.31 22.86,3.28 7.01,2.98 13.26,7.59 17.28,13.52 2,2.95 3.45,6.2 4.02,9.59 l 0.1,1.21 0.05,-0.16 8.64,88.17 128.76,-12.63 -7.57,-77.21 c -1.56,2.01 -3.72,3.7 -6.16,4.88 -3.45,1.75 -7.32,2.7 -11.24,3.13 -7.89,0.87 -15.89,-0.62 -22.92,-3.58 -7.06,-2.99 -13.12,-7.86 -16.89,-13.83 -3.69,-5.81 -5.92,-13.04 -2.54,-19.25 3.48,-6.2 11.47,-9.26 19.05,-10.2 7.77,-0.96 15.85,0.31 22.88,3.27 7.01,2.99 13.26,7.61 17.28,13.52 1.99,2.96 3.44,6.21 4,9.6 l 0.12,1.21 0.05,-0.16 8.63,88.17 128.76,-12.63 -7.57,-77.2 c -1.55,2 -3.72,3.69 -6.16,4.87 -3.44,1.74 -7.32,2.71 -11.24,3.14 -7.88,0.85 -15.9,-0.63 -22.94,-3.59 -7.04,-2.99 -13.08,-7.86 -16.85,-13.83 -3.72,-5.8 -5.94,-13.02 -2.55,-19.26 3.47,-6.18 11.45,-9.24 19.05,-10.18 7.76,-0.98 15.85,0.3 22.87,3.27 7.01,2.98 13.25,7.59 17.28,13.52 1.99,2.95 3.45,6.2 4.01,9.6 l 0.11,1.2 0.05,-0.15 13.46,137.32" /></g></g></svg>