<svg width="212" height="210" fill="none" xmlns="http://www.w3.org/2000/svg"><circle cx="188.5" cy="188.5" r="188.5" fill="#000"/><circle cx="188.916" cy="189.831" r="67.725" fill="#F5F1DB"/><path d="M312.981 189.471c0 68.771-55.749 124.521-124.52 124.521-68.771 0-124.52-55.75-124.52-124.521 0-68.77 55.749-124.52 124.52-124.52 68.771 0 124.52 55.75 124.52 124.52z" stroke="#fff" stroke-opacity=".5"/><path d="M323.779 189.695c0 74.425-60.333 134.759-134.759 134.759-74.425 0-134.758-60.334-134.758-134.759 0-74.425 60.333-134.759 134.758-134.759 74.426 0 134.759 60.334 134.759 134.759z" stroke="#fff" stroke-opacity=".5"/><g filter="url(#filter0_i)"><circle cx="188.916" cy="189.831" transform="rotate(26.265 188.916 189.831)" fill="#fff" r="6.567"/></g><defs><filter id="filter0_i" x="180.12" y="181.035" width="17.591" height="23.591" filterUnits="userSpaceOnUse" color-interpolation-filters="sRGB"><feFlood flood-opacity="0" result="BackgroundImageFix"/><feBlend in="SourceGraphic" in2="BackgroundImageFix" result="shape"/><feColorMatrix in="SourceAlpha" values="0 0 0 0 0 0 0 0 0 0 0 0 0 0 0 0 0 0 127 0" result="hardAlpha"/><feOffset dy="6"/><feGaussianBlur stdDeviation="12"/><feComposite in2="hardAlpha" operator="arithmetic" k2="-1" k3="1"/><feColorMatrix values="0 0 0 0 0 0 0 0 0 0 0 0 0 0 0 0 0 0 0.5 0"/><feBlend in2="shape" result="effect1_innerShadow"/></filter></defs></svg>